<svg xmlns="http://www.w3.org/2000/svg" viewBox="0 0 580 280" role="img" aria-labelledby="title desc">
  <title id="title">ANIMUS</title>
  <desc id="desc">A survival-horror roguelite whose neural-network adversary learns your behavior.</desc>
  <defs>
    <filter id="grain">
      <feTurbulence type="fractalNoise" baseFrequency=".84" numOctaves="2" seed="8"/>
      <feComponentTransfer><feFuncA type="table" tableValues="0 .045"/></feComponentTransfer>
    </filter>
    <clipPath id="clip"><rect width="580" height="280" rx="8"/></clipPath>
  </defs>
  <g clip-path="url(#clip)">
    <rect width="580" height="280" fill="#0C0D0F"/>
    <rect x="18" y="18" width="544" height="244" fill="none" stroke="#2A2D33"/>
    <line x1="414" y1="18" x2="414" y2="262" stroke="#2A2D33"/>
    <line x1="18" y1="225" x2="562" y2="225" stroke="#2A2D33"/>

    <g transform="translate(0,0)">
        <g fill="none" stroke="#F0EDE6" stroke-width="1.2" opacity=".84">
          <path d="M48 136Q210 28 378 136Q210 244 48 136Z"/>
          <circle cx="212" cy="136" r="49"/>
          <circle cx="212" cy="136" r="17" fill="#FF3045" stroke="none"/>
          <path d="M212 87L152 58 M212 87L280 50 M212 185L142 211 M212 185L288 214"/>
          <circle cx="152" cy="58" r="5"/><circle cx="280" cy="50" r="5"/>
          <circle cx="142" cy="211" r="5"/><circle cx="288" cy="214" r="5"/>
        </g>
        </g>

    <rect x="414" y="18" width="148" height="52" fill="#FF3045"/>
    <text x="488" y="55" text-anchor="middle" fill="#FFFFFF"
          font-family="Arial, Helvetica, sans-serif" font-size="34" font-weight="900">03</text>

    <text x="438" y="112" fill="#F0EDE6" font-family="ui-monospace, SFMono-Regular, Menlo, Consolas, monospace"
          font-size="11" letter-spacing="1.5">FEATURED BUILD</text>
    <text x="438" y="153" fill="#F0EDE6" font-family="Arial, Helvetica, sans-serif"
          font-size="25" font-weight="900">ANIMUS</text>
    <text x="438" y="183" fill="#A6A39C" font-family="ui-monospace, SFMono-Regular, Menlo, Consolas, monospace"
          font-size="9.5" letter-spacing=".8">C99 / RAYLIB / MLP</text>

    <text x="38" y="250" fill="#F0EDE6" font-family="ui-monospace, SFMono-Regular, Menlo, Consolas, monospace"
          font-size="11.2">A survival-horror roguelite whose neural-network adversary learns your behavior.</text>

    <rect width="580" height="280" fill="none" filter="url(#grain)" pointer-events="none"/>
  </g>
</svg>
