<svg xmlns="http://www.w3.org/2000/svg" width="142" height="40" viewBox="0 0 142 40" role="img" aria-label="DISCORD">
<rect x="0.6" y="0.6" width="140.8" height="38.8" rx="8" fill="#1f1414" stroke="#3a2626" stroke-width="1.2"/><rect x="1.5" y="1.5" width="4" height="37" rx="2" fill="#c2504a" opacity="0.72"/><path d="M31.294420366227428 13.353142857142855C31.294420366227428 13.33485714285714 31.294420366227428 13.33485714285714 31.27613465194171 13.33485714285714C29.94127750908457 12.73142857142857 28.478420366227425 12.274285714285712 26.99727750908457 12.018285714285712V11.999999999999998C26.978991794798855 11.999999999999998 26.942420366227424 12.018285714285712 26.924134651941714 12.036571428571426C26.722991794798855 12.383999999999997 26.558420366227423 12.767999999999997 26.393848937655996 13.133714285714284C25.607563223370285 13.005714285714284 24.802991794798857 12.95085714285714 23.98013465194171 12.95085714285714C23.15727750908457 12.95085714285714 22.389277509084568 13.005714285714284 21.602991794798854 13.133714285714284C21.438420366227426 12.767999999999997 21.25556322337028 12.383999999999997 21.054420366227426 12.036571428571426C21.03613465194171 12.018285714285712 21.017848937655998 12.018285714285712 20.99956322337028 12.018285714285712H20.98127750908457C19.50013465194171 12.274285714285712 18.05556322337028 12.73142857142857 16.72070608051314 13.33485714285714C16.702420366227425 13.33485714285714 16.68413465194171 13.33485714285714 16.68413465194171 13.353142857142855C13.959563223370282 17.412571428571425 13.22813465194171 21.39885714285714 13.593848937655995 25.311999999999998C13.593848937655995 25.33028571428571 13.593848937655995 25.33028571428571 13.61213465194171 25.348571428571425C15.166420366227424 26.500571428571426 16.958420366227426 27.41485714285714 18.86013465194171 28.0H18.878420366227424C18.89670608051314 28.0 18.91499179479885 28.0 18.93327750908457 27.981714285714283C19.335563223370283 27.433142857142855 19.682991794798852 26.866285714285713 19.993848937655997 26.244571428571426C19.993848937655997 26.244571428571426 20.01213465194171 26.226285714285712 20.01213465194171 26.208C20.01213465194171 26.17142857142857 19.975563223370283 26.17142857142857 19.95727750908457 26.153142857142857C19.390420366227424 25.933714285714284 18.841848937655996 25.65942857142857 18.329848937655996 25.366857142857143C18.311563223370282 25.348571428571425 18.293277509084568 25.33028571428571 18.293277509084568 25.311999999999998C18.293277509084568 25.293714285714284 18.311563223370282 25.27542857142857 18.329848937655996 25.257142857142856C18.439563223370282 25.165714285714284 18.530991794798854 25.09257142857143 18.64070608051314 25.001142857142856C18.658991794798855 24.982857142857142 18.67727750908457 24.982857142857142 18.695563223370282 24.982857142857142H18.713848937655996C22.15156322337028 26.55542857142857 25.863563223370285 26.55542857142857 29.264706080513143 24.982857142857142H29.30127750908457C29.31956322337028 24.982857142857142 29.31956322337028 25.001142857142856 29.337848937656 25.001142857142856C29.44756322337028 25.09257142857143 29.55727750908457 25.165714285714284 29.666991794798854 25.257142857142856C29.68527750908457 25.27542857142857 29.68527750908457 25.293714285714284 29.68527750908457 25.311999999999998C29.68527750908457 25.33028571428571 29.666991794798854 25.348571428571425 29.648706080513143 25.366857142857143C29.136706080513143 25.677714285714284 28.588134651941708 25.933714285714284 28.02127750908457 26.153142857142857C28.002991794798852 26.17142857142857 27.966420366227425 26.17142857142857 27.966420366227425 26.208C27.966420366227425 26.226285714285712 27.984706080513142 26.226285714285712 27.984706080513142 26.244571428571426C28.295563223370284 26.848 28.66127750908457 27.433142857142855 29.06356322337028 27.981714285714283C29.081848937655998 28.0 29.081848937655998 28.0 29.10013465194171 28.0H29.136706080513143C31.038420366227427 27.41485714285714 32.81213465194171 26.500571428571426 34.38470608051314 25.348571428571425C34.40299179479886 25.33028571428571 34.40299179479886 25.33028571428571 34.40299179479886 25.311999999999998C34.841848937655996 20.777142857142856 33.671563223370285 16.845714285714283 31.294420366227428 13.353142857142855ZM20.52413465194171 22.916571428571427C19.481848937655997 22.916571428571427 18.622420366227423 21.983999999999998 18.622420366227423 20.813714285714283C18.622420366227423 19.64342857142857 19.481848937655997 18.692571428571426 20.52413465194171 18.692571428571426C21.58470608051314 18.692571428571426 22.425848937655996 19.661714285714282 22.407563223370282 20.813714285714283C22.407563223370282 21.983999999999998 21.566420366227426 22.916571428571427 20.52413465194171 22.916571428571427ZM27.490991794798852 22.916571428571427C26.44870608051314 22.916571428571427 25.607563223370285 21.983999999999998 25.607563223370285 20.813714285714283C25.607563223370285 19.64342857142857 26.44870608051314 18.692571428571426 27.490991794798852 18.692571428571426C28.55156322337028 18.692571428571426 29.392706080513143 19.661714285714282 29.374420366227426 20.813714285714283C29.374420366227426 21.983999999999998 28.55156322337028 22.916571428571427 27.490991794798852 22.916571428571427Z" fill="#c2504a"/><path d="M63.974,17.710 L63.974,22.637 L64.384,22.637 Q65.277,22.637 65.656,22.076 Q66.035,21.513 66.035,20.164 Q66.035,18.827 65.656,18.269 Q65.277,17.710 64.384,17.710 L63.974,17.710 Z M62.461,16.345 L64.082,16.345 Q65.957,16.345 66.783,17.241 Q67.610,18.135 67.610,20.164 Q67.610,22.200 66.783,23.101 Q65.957,24.000 64.082,24.000 L62.461,24.000 L62.461,16.345 Z M68.963,17.679 L68.963,16.345 L73.521,16.345 L73.521,17.679 L71.998,17.679 L71.998,22.666 L73.521,22.666 L73.521,24.000 L68.963,24.000 L68.963,22.666 L70.486,22.666 L70.486,17.679 L68.963,17.679 Z M77.017,20.642 Q75.874,20.205 75.469,19.726 Q75.063,19.247 75.063,18.437 Q75.063,17.396 75.729,16.803 Q76.397,16.207 77.560,16.207 Q78.089,16.207 78.617,16.328 Q79.145,16.448 79.662,16.684 L79.662,18.161 Q79.175,17.816 78.673,17.638 Q78.171,17.457 77.678,17.457 Q77.130,17.457 76.837,17.679 Q76.545,17.899 76.545,18.309 Q76.545,18.627 76.758,18.835 Q76.971,19.042 77.647,19.293 L78.299,19.539 Q79.222,19.877 79.657,20.437 Q80.093,20.996 80.093,21.846 Q80.093,23.006 79.408,23.578 Q78.724,24.149 77.340,24.149 Q76.771,24.149 76.199,24.013 Q75.628,23.877 75.094,23.610 L75.094,22.046 Q75.700,22.477 76.266,22.688 Q76.832,22.898 77.386,22.898 Q77.944,22.898 78.251,22.645 Q78.559,22.391 78.559,21.934 Q78.559,21.590 78.354,21.332 Q78.149,21.073 77.760,20.924 L77.017,20.642 Z M86.266,23.780 Q85.906,23.964 85.511,24.056 Q85.117,24.149 84.683,24.149 Q83.134,24.149 82.318,23.129 Q81.503,22.108 81.503,20.181 Q81.503,18.248 82.318,17.227 Q83.134,16.207 84.683,16.207 Q85.117,16.207 85.518,16.299 Q85.918,16.391 86.266,16.576 L86.266,18.258 Q85.877,17.899 85.509,17.733 Q85.144,17.565 84.753,17.565 Q83.923,17.565 83.500,18.225 Q83.076,18.883 83.076,20.181 Q83.076,21.472 83.500,22.131 Q83.923,22.789 84.753,22.789 Q85.144,22.789 85.509,22.624 Q85.877,22.456 86.266,22.099 L86.266,23.780 Z M90.203,17.565 Q89.624,17.565 89.357,18.184 Q89.091,18.801 89.091,20.181 Q89.091,21.554 89.357,22.172 Q89.624,22.789 90.203,22.789 Q90.787,22.789 91.053,22.172 Q91.321,21.554 91.321,20.181 Q91.321,18.801 91.053,18.184 Q90.787,17.565 90.203,17.565 Z M87.518,20.181 Q87.518,18.217 88.197,17.213 Q88.876,16.207 90.203,16.207 Q91.537,16.207 92.216,17.213 Q92.896,18.217 92.896,20.181 Q92.896,22.140 92.216,23.145 Q91.537,24.149 90.203,24.149 Q88.876,24.149 88.197,23.145 Q87.518,22.140 87.518,20.181 Z M97.504,20.386 Q97.729,20.432 97.897,20.599 Q98.064,20.765 98.303,21.247 L99.688,24.000 L98.028,24.000 L97.104,22.067 Q97.063,21.985 96.997,21.841 Q96.592,20.975 96.043,20.975 L95.562,20.975 L95.562,24.000 L94.049,24.000 L94.049,16.345 L96.233,16.345 Q97.709,16.345 98.353,16.868 Q98.996,17.392 98.996,18.571 Q98.996,19.360 98.612,19.828 Q98.228,20.294 97.504,20.386 Z M95.562,17.616 L95.562,19.703 L96.274,19.703 Q96.894,19.703 97.163,19.460 Q97.432,19.216 97.432,18.658 Q97.432,18.099 97.165,17.858 Q96.899,17.616 96.274,17.616 L95.562,17.616 Z M101.903,17.710 L101.903,22.637 L102.313,22.637 Q103.206,22.637 103.585,22.076 Q103.964,21.513 103.964,20.164 Q103.964,18.827 103.585,18.269 Q103.206,17.710 102.313,17.710 L101.903,17.710 Z M100.390,16.345 L102.011,16.345 Q103.887,16.345 104.712,17.241 Q105.539,18.135 105.539,20.164 Q105.539,22.200 104.712,23.101 Q103.887,24.000 102.011,24.000 L100.390,24.000 L100.390,16.345 Z" fill="#f3ece7"/>
</svg>
