<svg xmlns="http://www.w3.org/2000/svg" width="142" height="40" viewBox="0 0 142 40" role="img" aria-label="GITHUB">
<rect x="0.6" y="0.6" width="140.8" height="38.8" rx="8" fill="#1f1414" stroke="#3a2626" stroke-width="1.2"/><rect x="1.5" y="1.5" width="4" height="37" rx="2" fill="#c2504a" opacity="0.72"/><path d="M21.278782774808818 24.885514586575066C21.278782774808818 24.81769608875099 21.194009652528717 24.749877590926907 21.0922819057926 24.766832215382927C20.99055415905648 24.766832215382927 20.9227356612324 24.81769608875099 20.9227356612324 24.885514586575066C20.9227356612324 24.953333084399148 21.0075087835125 25.021151582223226 21.10923653024862 25.004196957767206C21.21096427698474 25.004196957767206 21.278782774808818 24.953333084399148 21.278782774808818 24.885514586575066ZM20.24455068299161 24.732922966470888C20.22759605853559 24.80074146429497 20.295414556359667 24.885514586575066 20.397142303095784 24.902469211031086C20.481915425375885 24.936378459943125 20.583643172112005 24.902469211031086 20.600597796568024 24.834650713207008C20.617552421024044 24.766832215382927 20.549733923199966 24.69901371755885 20.448006176463846 24.66510446864681C20.363233054183745 24.64814984419079 20.261505307447628 24.66510446864681 20.24455068299161 24.732922966470888ZM21.71960301066533 24.68205909310283C21.617875263929214 24.69901371755885 21.550056766105133 24.78378683983895 21.567011390561156 24.851605337663027C21.583966015017175 24.919423835487105 21.651784512841253 24.953333084399148 21.75351225957737 24.936378459943125C21.85524000631349 24.919423835487105 21.923058504137572 24.851605337663027 21.906103879681552 24.78378683983895C21.88914925522553 24.715968342014868 21.82133075740145 24.66510446864681 21.71960301066533 24.68205909310283ZM23.88979494103587 11.999999999999998C19.295091713454497 11.999999999999998 15.785484451058393 15.475698013484063 15.785484451058393 20.070401241065436C15.785484451058393 23.749554748021737 18.09131337707709 26.886160272385407 21.397465146000954 27.988210862026694C21.82133075740145 28.056029359850776 21.97392237750563 27.818664617466496 21.97392237750563 27.59825449953824C21.97392237750563 27.394799006066002 21.95696775304961 26.258839167512672 21.95696775304961 25.56369956481586C21.95696775304961 25.56369956481586 19.651138827030913 26.055383674040435 19.159454717806337 24.58033134636671C19.159454717806337 24.58033134636671 18.7864529797739 23.61391775237358 18.243904997181268 23.359598385533282C18.243904997181268 23.359598385533282 17.480946896660374 22.834005027396667 18.294768870549326 22.850959651852687C18.294768870549326 22.850959651852687 19.10859084443828 22.91877814967677 19.566365704750815 23.69869087465368C20.295414556359667 24.970287708855167 21.499192892737074 24.61424059527875 21.97392237750563 24.39383047735049C22.041740875329708 23.868237119213877 22.279105617713988 23.49523538118144 22.516470360098264 23.274825263253184C20.668416294392102 23.071369769780944 18.7864529797739 22.817050402940648 18.7864529797739 19.62958100520892C18.7864529797739 18.71403128458385 19.0407723466142 18.256256424271314 19.566365704750815 17.67979919276664C19.481592582470714 17.459389074838384 19.2103185911744 16.57774860312535 19.668093451486932 15.424834140116003C20.363233054183745 15.204424022187746 21.94001312859359 16.323429236285055 21.94001312859359 16.323429236285055C22.601243482378365 16.136928367268837 23.313337709531197 16.035200620532716 24.02543193668403 16.035200620532716C24.73752616383686 16.035200620532716 25.449620390989693 16.136928367268837 26.110850744774467 16.323429236285055C26.110850744774467 16.323429236285055 27.687630819184314 15.204424022187746 28.382770421881126 15.424834140116003C28.84054528219366 16.57774860312535 28.55231666644132 17.459389074838384 28.467543544161224 17.67979919276664C28.993136902297838 18.273211048727333 29.332229391418235 18.71403128458385 29.332229391418235 19.62958100520892C29.332229391418235 22.817050402940648 27.382447578975956 23.071369769780944 25.534393513269794 23.274825263253184C25.83957675347815 23.52914463009348 26.093896120318448 24.037783363774075 26.093896120318448 24.81769608875099C26.093896120318448 25.936701302848295 26.076941495862428 27.3100258837859 26.076941495862428 27.58129987508222C26.076941495862428 27.801709993010476 26.229533115966607 28.056029359850776 26.653398727367104 27.988210862026694C29.95955049629097 26.886160272385407 32.214515548941606 23.749554748021737 32.214515548941606 20.070401241065436C32.214515548941606 15.475698013484063 28.484498168617243 11.999999999999998 23.88979494103587 11.999999999999998ZM19.00686309770216 23.41046225890134C18.9559992243341 23.444371507813383 18.97295384879012 23.51219000563746 19.023817722158178 23.580008503461542C19.07468159552624 23.6308723768296 19.142500093350318 23.66478162574164 19.19336396671838 23.61391775237358C19.244227840086438 23.580008503461542 19.22727321563042 23.51219000563746 19.176409342262357 23.444371507813383C19.1255454688943 23.39350763444532 19.05772697107022 23.359598385533282 19.00686309770216 23.41046225890134ZM18.650815984125742 23.139188267605025C18.633861359669723 23.190052140973084 18.650815984125742 23.240916014341146 18.718634481949824 23.274825263253184C18.769498355317882 23.308734512165223 18.854271477597983 23.308734512165223 18.871226102054003 23.257870638797165C18.888180726510022 23.207006765429103 18.854271477597983 23.156142892061045 18.7864529797739 23.122233643149006C18.718634481949824 23.105279018692986 18.667770608581762 23.105279018692986 18.650815984125742 23.139188267605025ZM19.718957324854994 24.326011979526413C19.668093451486932 24.37687585289447 19.70200270039897 24.461648975174572 19.769821198223053 24.52946747299865C19.83763969604713 24.59728597082273 19.92241281832723 24.61424059527875 19.97327669169529 24.56337672191069C20.024140565063348 24.51251284854263 20.00718594060733 24.42773972626253 19.93936744278325 24.359921228438452C19.871548944959173 24.292102730614374 19.769821198223053 24.275148106158355 19.718957324854994 24.326011979526413ZM19.345955586822555 23.834327870301838C19.295091713454497 23.868237119213877 19.295091713454497 23.969964865949997 19.345955586822555 24.037783363774075C19.396819460190617 24.105601861598153 19.481592582470714 24.139511110510195 19.532456455838776 24.105601861598153C19.583320329206835 24.054737988230094 19.583320329206835 23.969964865949997 19.532456455838776 23.902146368125916C19.481592582470714 23.834327870301838 19.396819460190617 23.78346399693378 19.345955586822555 23.834327870301838Z" fill="#c2504a"/><path d="M69.395,22.615 L69.395,21.155 L68.360,21.155 L68.360,19.884 L70.718,19.884 L70.718,23.390 Q70.283,23.764 69.756,23.957 Q69.231,24.149 68.631,24.149 Q67.145,24.149 66.334,23.116 Q65.525,22.082 65.525,20.181 Q65.525,18.248 66.342,17.227 Q67.161,16.207 68.703,16.207 Q69.164,16.207 69.610,16.338 Q70.057,16.468 70.447,16.714 L70.447,18.391 Q70.129,17.981 69.715,17.774 Q69.304,17.565 68.811,17.565 Q67.950,17.565 67.524,18.215 Q67.099,18.863 67.099,20.181 Q67.099,21.457 67.509,22.123 Q67.919,22.789 68.703,22.789 Q68.939,22.789 69.113,22.747 Q69.287,22.702 69.395,22.615 Z M72.129,17.679 L72.129,16.345 L76.687,16.345 L76.687,17.679 L75.164,17.679 L75.164,22.666 L76.687,22.666 L76.687,24.000 L72.129,24.000 L72.129,22.666 L73.651,22.666 L73.651,17.679 L72.129,17.679 Z M81.486,24.000 L79.973,24.000 L79.973,17.669 L78.029,17.669 L78.029,16.345 L83.428,16.345 L83.428,17.669 L81.486,17.669 L81.486,24.000 Z M84.592,16.345 L86.104,16.345 L86.104,19.262 L87.996,19.262 L87.996,16.345 L89.509,16.345 L89.509,24.000 L87.996,24.000 L87.996,20.596 L86.104,20.596 L86.104,24.000 L84.592,24.000 L84.592,16.345 Z M90.754,21.175 L90.754,16.345 L92.267,16.345 L92.267,21.554 Q92.267,22.128 92.559,22.455 Q92.851,22.779 93.369,22.779 Q93.888,22.779 94.180,22.455 Q94.472,22.128 94.472,21.554 L94.472,16.345 L95.984,16.345 L95.984,21.175 Q95.984,22.733 95.364,23.442 Q94.744,24.149 93.369,24.149 Q92.001,24.149 91.377,23.442 Q90.754,22.733 90.754,21.175 Z M98.634,20.524 L98.634,22.789 L99.640,22.789 Q100.362,22.789 100.652,22.543 Q100.942,22.297 100.942,21.688 Q100.942,21.067 100.639,20.796 Q100.337,20.524 99.640,20.524 L98.634,20.524 Z M98.634,17.539 L98.634,19.319 L99.640,19.319 Q100.214,19.319 100.457,19.114 Q100.701,18.909 100.701,18.437 Q100.701,17.966 100.452,17.753 Q100.204,17.539 99.640,17.539 L98.634,17.539 Z M97.174,16.335 L99.640,16.335 Q100.916,16.335 101.559,16.821 Q102.202,17.305 102.202,18.268 Q102.202,19.006 101.823,19.421 Q101.444,19.836 100.711,19.903 Q101.587,19.990 102.030,20.494 Q102.475,20.996 102.475,21.898 Q102.475,23.006 101.807,23.503 Q101.141,24.000 99.640,24.000 L97.174,24.000 L97.174,16.335 Z" fill="#f3ece7"/>
</svg>
