<svg xmlns="http://www.w3.org/2000/svg" width="142" height="40" viewBox="0 0 142 40" role="img" aria-label="INSTAGRAM">
<rect x="0.6" y="0.6" width="140.8" height="38.8" rx="8" fill="#1f1414" stroke="#3a2626" stroke-width="1.2"/><rect x="1.5" y="1.5" width="4" height="37" rx="2" fill="#c2504a" opacity="0.72"/><path d="M24.009142857142855 15.894857142857141C21.741714285714288 15.894857142857141 19.89485714285714 17.741714285714284 19.89485714285714 20.009142857142855C19.89485714285714 22.276571428571426 21.741714285714288 24.105142857142855 24.009142857142855 24.105142857142855C26.27657142857143 24.105142857142855 28.10514285714286 22.276571428571426 28.10514285714286 20.009142857142855C28.10514285714286 17.741714285714284 26.27657142857143 15.894857142857141 24.009142857142855 15.894857142857141ZM24.009142857142855 22.67885714285714C22.546285714285716 22.67885714285714 21.33942857142857 21.471999999999998 21.33942857142857 20.009142857142855C21.33942857142857 18.546285714285712 22.546285714285716 17.33942857142857 24.009142857142855 17.33942857142857C25.472 17.33942857142857 26.678857142857144 18.546285714285712 26.678857142857144 20.009142857142855C26.678857142857144 21.471999999999998 25.472 22.67885714285714 24.009142857142855 22.67885714285714ZM29.238857142857142 15.730285714285712C29.238857142857142 15.199999999999998 28.8 14.77942857142857 28.269714285714286 14.77942857142857C27.739428571428572 14.77942857142857 27.318857142857144 15.199999999999998 27.318857142857144 15.730285714285712C27.318857142857144 16.260571428571424 27.739428571428572 16.69942857142857 28.269714285714286 16.69942857142857C28.8 16.69942857142857 29.238857142857142 16.260571428571424 29.238857142857142 15.730285714285712ZM31.94514285714286 16.69942857142857C31.890285714285717 15.419428571428568 31.59771428571429 14.285714285714283 30.665142857142857 13.353142857142855C29.73257142857143 12.420571428571426 28.58057142857143 12.127999999999997 27.30057142857143 12.05485714285714C25.984 11.981714285714283 22.016 11.981714285714283 20.699428571428573 12.05485714285714C19.419428571428572 12.109714285714283 18.285714285714285 12.420571428571426 17.353142857142856 13.353142857142855C16.420571428571428 14.285714285714283 16.128 15.419428571428568 16.05485714285714 16.69942857142857C15.981714285714286 18.016 15.981714285714286 21.983999999999998 16.05485714285714 23.300571428571427C16.109714285714286 24.580571428571428 16.420571428571428 25.732571428571426 17.353142857142856 26.665142857142854C18.285714285714285 27.597714285714286 19.419428571428572 27.872 20.699428571428573 27.945142857142855C22.016 28.018285714285714 25.984 28.018285714285714 27.30057142857143 27.945142857142855C28.58057142857143 27.890285714285714 29.73257142857143 27.597714285714286 30.665142857142857 26.665142857142854C31.59771428571429 25.732571428571426 31.872 24.580571428571428 31.94514285714286 23.300571428571427C32.01828571428571 21.983999999999998 32.01828571428571 18.016 31.94514285714286 16.69942857142857ZM30.24457142857143 24.726857142857142C29.970285714285716 25.421714285714284 29.421714285714287 25.970285714285712 28.726857142857142 26.244571428571426C27.666285714285713 26.665142857142854 25.179428571428573 26.573714285714285 24.009142857142855 26.573714285714285C22.838857142857144 26.573714285714285 20.333714285714287 26.665142857142854 19.291428571428572 26.244571428571426C18.59657142857143 25.970285714285712 18.029714285714284 25.421714285714284 17.75542857142857 24.726857142857142C17.334857142857143 23.666285714285713 17.44457142857143 21.17942857142857 17.44457142857143 20.009142857142855C17.44457142857143 18.83885714285714 17.334857142857143 16.333714285714283 17.75542857142857 15.291428571428568C18.029714285714284 14.596571428571426 18.59657142857143 14.047999999999998 19.291428571428572 13.773714285714282C20.352 13.353142857142855 22.838857142857144 13.444571428571425 24.009142857142855 13.444571428571425C25.179428571428573 13.444571428571425 27.68457142857143 13.353142857142855 28.726857142857142 13.773714285714282C29.421714285714287 14.047999999999998 29.970285714285716 14.596571428571426 30.24457142857143 15.291428571428568C30.665142857142857 16.351999999999997 30.55542857142857 18.83885714285714 30.55542857142857 20.009142857142855C30.55542857142857 21.17942857142857 30.665142857142857 23.684571428571427 30.24457142857143 24.726857142857142Z" fill="#c2504a"/><path d="M56.215,17.679 L56.215,16.345 L60.773,16.345 L60.773,17.679 L59.250,17.679 L59.250,22.666 L60.773,22.666 L60.773,24.000 L56.215,24.000 L56.215,22.666 L57.738,22.666 L57.738,17.679 L56.215,17.679 Z M62.264,16.345 L63.890,16.345 L66.023,21.908 L66.023,16.345 L67.355,16.345 L67.355,24.000 L65.741,24.000 L63.597,18.437 L63.597,24.000 L62.264,24.000 L62.264,16.345 Z M70.591,20.642 Q69.447,20.205 69.042,19.726 Q68.637,19.247 68.637,18.437 Q68.637,17.396 69.303,16.803 Q69.971,16.207 71.134,16.207 Q71.662,16.207 72.190,16.328 Q72.719,16.448 73.235,16.684 L73.235,18.161 Q72.748,17.816 72.246,17.638 Q71.744,17.457 71.252,17.457 Q70.704,17.457 70.410,17.679 Q70.118,17.899 70.118,18.309 Q70.118,18.627 70.332,18.835 Q70.545,19.042 71.221,19.293 L71.872,19.539 Q72.796,19.877 73.231,20.437 Q73.667,20.996 73.667,21.846 Q73.667,23.006 72.981,23.578 Q72.297,24.149 70.914,24.149 Q70.345,24.149 69.772,24.013 Q69.201,23.877 68.668,23.610 L68.668,22.046 Q69.273,22.477 69.839,22.688 Q70.405,22.898 70.960,22.898 Q71.518,22.898 71.825,22.645 Q72.133,22.391 72.133,21.934 Q72.133,21.590 71.928,21.332 Q71.723,21.073 71.334,20.924 L70.591,20.642 Z M78.215,24.000 L76.702,24.000 L76.702,17.669 L74.758,17.669 L74.758,16.345 L80.157,16.345 L80.157,17.669 L78.215,17.669 L78.215,24.000 Z M83.777,17.730 L83.065,20.861 L84.495,20.861 L83.777,17.730 Z M82.855,16.345 L84.705,16.345 L86.771,24.000 L85.258,24.000 L84.787,22.108 L82.761,22.108 L82.300,24.000 L80.788,24.000 L82.855,16.345 Z M91.411,22.615 L91.411,21.155 L90.376,21.155 L90.376,19.884 L92.733,19.884 L92.733,23.390 Q92.298,23.764 91.772,23.957 Q91.247,24.149 90.646,24.149 Q89.160,24.149 88.350,23.116 Q87.541,22.082 87.541,20.181 Q87.541,18.248 88.358,17.227 Q89.176,16.207 90.719,16.207 Q91.180,16.207 91.626,16.338 Q92.072,16.468 92.463,16.714 L92.463,18.391 Q92.144,17.981 91.731,17.774 Q91.319,17.565 90.827,17.565 Q89.966,17.565 89.539,18.215 Q89.114,18.863 89.114,20.181 Q89.114,21.457 89.524,22.123 Q89.934,22.789 90.719,22.789 Q90.955,22.789 91.129,22.747 Q91.303,22.702 91.411,22.615 Z M97.399,20.386 Q97.624,20.432 97.792,20.599 Q97.959,20.765 98.198,21.247 L99.583,24.000 L97.923,24.000 L96.999,22.067 Q96.958,21.985 96.892,21.841 Q96.487,20.975 95.938,20.975 L95.457,20.975 L95.457,24.000 L93.944,24.000 L93.944,16.345 L96.128,16.345 Q97.604,16.345 98.248,16.868 Q98.891,17.392 98.891,18.571 Q98.891,19.360 98.507,19.828 Q98.123,20.294 97.399,20.386 Z M95.457,17.616 L95.457,19.703 L96.169,19.703 Q96.789,19.703 97.058,19.460 Q97.327,19.216 97.327,18.658 Q97.327,18.099 97.060,17.858 Q96.794,17.616 96.169,17.616 L95.457,17.616 Z M102.741,17.730 L102.029,20.861 L103.460,20.861 L102.741,17.730 Z M101.819,16.345 L103.670,16.345 L105.736,24.000 L104.223,24.000 L103.752,22.108 L101.726,22.108 L101.265,24.000 L99.752,24.000 L101.819,16.345 Z M106.346,16.345 L108.151,16.345 L109.063,19.703 L109.970,16.345 L111.785,16.345 L111.785,24.000 L110.484,24.000 L110.484,17.867 L109.673,21.216 L108.469,21.216 L107.649,17.867 L107.649,24.000 L106.346,24.000 L106.346,16.345 Z" fill="#f3ece7"/>
</svg>
