<svg xmlns="http://www.w3.org/2000/svg" width="142" height="40" viewBox="0 0 142 40" role="img" aria-label="MY ROOM">
<rect x="0.6" y="0.6" width="140.8" height="38.8" rx="8" fill="#1f1414" stroke="#3a2626" stroke-width="1.2"/><rect x="1.5" y="1.5" width="4" height="37" rx="2" fill="#c2504a" opacity="0.72"/><path d="M23.496066969052286 12.584345818843008 17.296163618604638 14.920762598691507C16.7311477960269 15.134552369396598 16.364651046246742 15.669026796159326 16.364651046246742 16.264584014552078V22.96842039594744C16.364651046246742 23.51816552061768 16.67006500439687 24.006827853657885 17.15872733743708 24.25115902017799L23.358630687884727 27.351110695401815C23.7556688334799 27.5496297681994 24.244331166520105 27.5496297681994 24.641369312115273 27.351110695401815L30.841272662562922 24.25115902017799C31.329934995603132 24.006827853657885 31.63534895375326 23.50289482271017 31.63534895375326 22.96842039594744V16.264584014552078C31.63534895375326 15.669026796159326 31.268852203973104 15.134552369396598 30.703836381395362 14.920762598691507L24.503933030947717 12.599616516750515C24.18324837489008 12.477450933490463 23.816751625109923 12.462180235582956 23.496066969052286 12.584345818843008ZM24.0 14.447370963558804 29.726511715314945 16.585268670609715V16.61581006642473L24.0 18.952226846273227L18.273488284685058 16.61581006642473V16.585268670609715ZM24.946783270265406 25.060506009275834V20.61673291819144L29.726511715314945 18.677354283938108V22.678277135704818Z" fill="#c2504a"/><path d="M62.316,16.345 L64.121,16.345 L65.033,19.703 L65.940,16.345 L67.755,16.345 L67.755,24.000 L66.454,24.000 L66.454,17.867 L65.643,21.216 L64.439,21.216 L63.619,17.867 L63.619,24.000 L62.316,24.000 L62.316,16.345 Z M68.237,16.345 L69.868,16.345 L71.354,19.421 L72.846,16.345 L74.477,16.345 L72.114,20.985 L72.114,24.000 L70.601,24.000 L70.601,20.985 L68.237,16.345 Z M84.977,20.386 Q85.202,20.432 85.369,20.599 Q85.536,20.765 85.776,21.247 L87.161,24.000 L85.500,24.000 L84.577,22.067 Q84.536,21.985 84.470,21.841 Q84.065,20.975 83.515,20.975 L83.034,20.975 L83.034,24.000 L81.522,24.000 L81.522,16.345 L83.706,16.345 Q85.182,16.345 85.825,16.868 Q86.468,17.392 86.468,18.571 Q86.468,19.360 86.084,19.828 Q85.701,20.294 84.977,20.386 Z M83.034,17.616 L83.034,19.703 L83.747,19.703 Q84.367,19.703 84.636,19.460 Q84.905,19.216 84.905,18.658 Q84.905,18.099 84.637,17.858 Q84.372,17.616 83.747,17.616 L83.034,17.616 Z M90.319,17.565 Q89.740,17.565 89.473,18.184 Q89.207,18.801 89.207,20.181 Q89.207,21.554 89.473,22.172 Q89.740,22.789 90.319,22.789 Q90.903,22.789 91.169,22.172 Q91.436,21.554 91.436,20.181 Q91.436,18.801 91.169,18.184 Q90.903,17.565 90.319,17.565 Z M87.633,20.181 Q87.633,18.217 88.313,17.213 Q88.992,16.207 90.319,16.207 Q91.653,16.207 92.332,17.213 Q93.011,18.217 93.011,20.181 Q93.011,22.140 92.332,23.145 Q91.653,24.149 90.319,24.149 Q88.992,24.149 88.313,23.145 Q87.633,22.140 87.633,20.181 Z M96.641,17.565 Q96.061,17.565 95.794,18.184 Q95.528,18.801 95.528,20.181 Q95.528,21.554 95.794,22.172 Q96.061,22.789 96.641,22.789 Q97.225,22.789 97.490,22.172 Q97.758,21.554 97.758,20.181 Q97.758,18.801 97.490,18.184 Q97.225,17.565 96.641,17.565 Z M93.955,20.181 Q93.955,18.217 94.634,17.213 Q95.313,16.207 96.641,16.207 Q97.974,16.207 98.654,17.213 Q99.333,18.217 99.333,20.181 Q99.333,22.140 98.654,23.145 Q97.974,24.149 96.641,24.149 Q95.313,24.149 94.634,23.145 Q93.955,22.140 93.955,20.181 Z M100.245,16.345 L102.050,16.345 L102.962,19.703 L103.869,16.345 L105.684,16.345 L105.684,24.000 L104.383,24.000 L104.383,17.867 L103.572,21.216 L102.368,21.216 L101.548,17.867 L101.548,24.000 L100.245,24.000 L100.245,16.345 Z" fill="#f3ece7"/>
</svg>
