<svg xmlns="http://www.w3.org/2000/svg" width="240" height="34" viewBox="0 0 240 34" role="img" aria-label="Socials">
<path d="M84.230,21.190 Q82.386,21.190 80.875,20.356 Q79.367,19.519 78.797,18.168 Q78.702,17.942 78.702,17.788 Q78.702,17.503 78.910,17.286 Q79.121,17.066 79.480,16.992 Q79.536,16.971 79.670,16.971 Q79.976,16.971 80.249,17.152 Q80.525,17.334 80.659,17.636 Q81.000,18.379 82.006,18.892 Q83.016,19.403 84.230,19.403 Q85.655,19.403 86.644,18.750 Q87.632,18.094 87.632,16.954 Q87.632,15.870 86.795,15.101 Q85.961,14.332 84.251,14.160 Q81.894,13.931 80.543,12.783 Q79.195,11.634 79.195,9.903 Q79.195,8.689 79.887,7.807 Q80.581,6.922 81.787,6.456 Q82.995,5.990 84.497,5.990 Q86.130,5.990 87.249,6.655 Q88.371,7.320 89.152,8.555 Q89.381,8.917 89.381,9.238 Q89.381,9.656 89.001,9.924 Q88.790,10.057 88.505,10.057 Q88.220,10.057 87.974,9.915 Q87.727,9.772 87.594,9.523 Q87.080,8.668 86.311,8.223 Q85.542,7.777 84.364,7.777 Q82.921,7.777 82.027,8.338 Q81.134,8.896 81.134,9.962 Q81.134,10.948 81.932,11.613 Q82.731,12.278 84.782,12.489 Q87.062,12.717 88.315,13.866 Q89.571,15.015 89.571,16.897 Q89.571,18.263 88.829,19.242 Q88.086,20.222 86.860,20.706 Q85.637,21.190 84.230,21.190 Z" fill="#f3ece7"/><path d="M97.811,21.190 Q95.609,21.190 93.890,20.222 Q92.171,19.251 91.221,17.515 Q90.271,15.775 90.271,13.572 Q90.271,11.366 91.221,9.639 Q92.171,7.908 93.890,6.940 Q95.609,5.972 97.811,5.972 Q99.996,5.972 101.715,6.940 Q103.437,7.908 104.396,9.639 Q105.355,11.366 105.355,13.572 Q105.355,15.775 104.396,17.515 Q103.437,19.251 101.727,20.222 Q100.017,21.190 97.811,21.190 Z M97.811,19.403 Q99.426,19.403 100.718,18.634 Q102.012,17.865 102.734,16.535 Q103.455,15.205 103.455,13.572 Q103.455,11.936 102.734,10.606 Q102.012,9.276 100.730,8.516 Q99.447,7.756 97.811,7.756 Q96.179,7.756 94.896,8.516 Q93.614,9.276 92.892,10.606 Q92.171,11.936 92.171,13.572 Q92.171,15.205 92.892,16.535 Q93.614,17.865 94.905,18.634 Q96.196,19.403 97.811,19.403 Z" fill="#f3ece7"/><path d="M113.388,21.190 Q111.354,21.190 109.671,20.184 Q107.991,19.177 107.023,17.429 Q106.055,15.680 106.055,13.572 Q106.055,11.482 107.023,9.742 Q107.991,8.003 109.671,6.988 Q111.354,5.972 113.388,5.972 Q114.831,5.972 115.884,6.352 Q116.941,6.732 118.025,7.605 Q118.251,7.777 118.328,7.958 Q118.405,8.136 118.405,8.383 Q118.405,8.763 118.129,9.012 Q117.853,9.259 117.491,9.259 Q117.131,9.259 116.826,9.012 Q116.048,8.347 115.306,8.053 Q114.566,7.756 113.388,7.756 Q111.906,7.756 110.659,8.537 Q109.416,9.315 108.685,10.654 Q107.955,11.993 107.955,13.572 Q107.955,15.166 108.685,16.496 Q109.416,17.826 110.659,18.607 Q111.906,19.385 113.388,19.385 Q115.211,19.385 116.885,18.132 Q117.206,17.904 117.511,17.904 Q117.871,17.904 118.108,18.162 Q118.346,18.417 118.346,18.833 Q118.346,19.234 118.043,19.536 Q115.991,21.190 113.388,21.190 Z" fill="#f3ece7"/><path d="M120.094,21.000 Q119.675,21.000 119.390,20.715 Q119.105,20.430 119.105,20.011 L119.105,7.148 Q119.105,6.711 119.390,6.438 Q119.675,6.162 120.094,6.162 Q120.530,6.162 120.806,6.438 Q121.082,6.711 121.082,7.148 L121.082,20.011 Q121.082,20.430 120.806,20.715 Q120.530,21.000 120.094,21.000 Z" fill="#f3ece7"/><path d="M139.111,19.614 Q139.206,19.860 139.206,20.032 Q139.206,20.430 138.921,20.715 Q138.636,21.000 138.217,21.000 Q137.932,21.000 137.674,20.840 Q137.419,20.676 137.306,20.391 L136.240,17.731 L129.421,17.731 L128.337,20.391 Q128.204,20.676 127.957,20.840 Q127.711,21.000 127.426,21.000 Q127.007,21.000 126.731,20.706 Q126.455,20.412 126.455,20.011 Q126.455,19.821 126.550,19.575 L131.891,6.827 Q132.176,6.162 132.820,6.162 Q133.506,6.162 133.752,6.827 L139.111,19.614 Z M130.086,16.099 L135.575,16.099 L132.859,9.333 L130.086,16.099 Z" fill="#f3ece7"/><path d="M140.874,21.000 Q140.458,21.000 140.182,20.715 Q139.906,20.430 139.906,20.011 L139.906,7.148 Q139.906,6.732 140.191,6.447 Q140.476,6.162 140.874,6.162 Q141.292,6.162 141.577,6.447 Q141.862,6.732 141.862,7.148 L141.862,19.023 L148.741,19.023 Q149.159,19.023 149.444,19.308 Q149.729,19.593 149.729,20.011 Q149.729,20.430 149.444,20.715 Q149.159,21.000 148.741,21.000 L140.874,21.000 Z" fill="#f3ece7"/><path d="M155.957,21.190 Q154.114,21.190 152.602,20.356 Q151.094,19.519 150.524,18.168 Q150.429,17.942 150.429,17.788 Q150.429,17.503 150.637,17.286 Q150.848,17.066 151.207,16.992 Q151.264,16.971 151.397,16.971 Q151.703,16.971 151.976,17.152 Q152.252,17.334 152.386,17.636 Q152.727,18.379 153.734,18.892 Q154.743,19.403 155.957,19.403 Q157.382,19.403 158.371,18.750 Q159.359,18.094 159.359,16.954 Q159.359,15.870 158.522,15.101 Q157.688,14.332 155.978,14.160 Q153.621,13.931 152.270,12.783 Q150.922,11.634 150.922,9.903 Q150.922,8.689 151.614,7.807 Q152.309,6.922 153.514,6.456 Q154.722,5.990 156.224,5.990 Q157.857,5.990 158.976,6.655 Q160.099,7.320 160.879,8.555 Q161.108,8.917 161.108,9.238 Q161.108,9.656 160.728,9.924 Q160.517,10.057 160.232,10.057 Q159.947,10.057 159.701,9.915 Q159.454,9.772 159.321,9.523 Q158.807,8.668 158.038,8.223 Q157.269,7.777 156.091,7.777 Q154.648,7.777 153.754,8.338 Q152.861,8.896 152.861,9.962 Q152.861,10.948 153.659,11.613 Q154.458,12.278 156.509,12.489 Q158.789,12.717 160.042,13.866 Q161.298,15.015 161.298,16.897 Q161.298,18.263 160.556,19.242 Q159.814,20.222 158.587,20.706 Q157.364,21.190 155.957,21.190 Z" fill="#f3ece7"/><path d="M77 30 H163" stroke="#c2504a" stroke-width="2" stroke-linecap="round" opacity="0.75"/>
</svg>
