<svg xmlns="http://www.w3.org/2000/svg" width="252" height="248" viewBox="0 0 252 248" role="img" aria-label="FiveSaw toolbox">
<path d="M97.536,21.000 L95.087,21.000 L95.087,10.750 L91.939,10.750 L91.939,8.606 L100.681,8.606 L100.681,10.750 L97.536,10.750 L97.536,21.000 Z" fill="#f3ece7"/><path d="M106.229,10.582 Q105.292,10.582 104.859,11.584 Q104.429,12.582 104.429,14.816 Q104.429,17.040 104.859,18.041 Q105.292,19.040 106.229,19.040 Q107.175,19.040 107.605,18.041 Q108.038,17.040 108.038,14.816 Q108.038,12.582 107.605,11.584 Q107.175,10.582 106.229,10.582 Z M101.881,14.816 Q101.881,11.637 102.981,10.011 Q104.081,8.383 106.229,8.383 Q108.389,8.383 109.489,10.011 Q110.588,11.637 110.588,14.816 Q110.588,17.988 109.489,19.616 Q108.389,21.242 106.229,21.242 Q104.081,21.242 102.981,19.616 Q101.881,17.988 101.881,14.816 Z" fill="#f3ece7"/><path d="M116.137,10.582 Q115.199,10.582 114.766,11.584 Q114.336,12.582 114.336,14.816 Q114.336,17.040 114.766,18.041 Q115.199,19.040 116.137,19.040 Q117.082,19.040 117.513,18.041 Q117.946,17.040 117.946,14.816 Q117.946,12.582 117.513,11.584 Q117.082,10.582 116.137,10.582 Z M111.788,14.816 Q111.788,11.637 112.888,10.011 Q113.988,8.383 116.137,8.383 Q118.296,8.383 119.396,10.011 Q120.496,11.637 120.496,14.816 Q120.496,17.988 119.396,19.616 Q118.296,21.242 116.137,21.242 Q113.988,21.242 112.888,19.616 Q111.788,17.988 111.788,14.816 Z" fill="#f3ece7"/><path d="M121.696,21.000 L121.696,8.606 L124.145,8.606 L124.145,18.840 L129.383,18.840 L129.383,21.000 L121.696,21.000 Z" fill="#f3ece7"/><path d="M132.947,15.371 L132.947,19.040 L134.575,19.040 Q135.744,19.040 136.214,18.641 Q136.684,18.243 136.684,17.257 Q136.684,16.251 136.193,15.812 Q135.704,15.371 134.575,15.371 L132.947,15.371 Z M132.947,10.540 L132.947,13.422 L134.575,13.422 Q135.505,13.422 135.898,13.090 Q136.294,12.758 136.294,11.993 Q136.294,11.230 135.890,10.885 Q135.489,10.540 134.575,10.540 L132.947,10.540 Z M130.583,8.590 L134.575,8.590 Q136.642,8.590 137.683,9.376 Q138.724,10.160 138.724,11.719 Q138.724,12.914 138.111,13.586 Q137.497,14.258 136.310,14.367 Q137.728,14.508 138.445,15.324 Q139.165,16.136 139.165,17.597 Q139.165,19.390 138.084,20.195 Q137.006,21.000 134.575,21.000 L130.583,21.000 L130.583,8.590 Z" fill="#f3ece7"/><path d="M144.713,10.582 Q143.776,10.582 143.343,11.584 Q142.912,12.582 142.912,14.816 Q142.912,17.040 143.343,18.041 Q143.776,19.040 144.713,19.040 Q145.659,19.040 146.089,18.041 Q146.522,17.040 146.522,14.816 Q146.522,12.582 146.089,11.584 Q145.659,10.582 144.713,10.582 Z M140.365,14.816 Q140.365,11.637 141.465,10.011 Q142.564,8.383 144.713,8.383 Q146.873,8.383 147.973,10.011 Q149.072,11.637 149.072,14.816 Q149.072,17.988 147.973,19.616 Q146.873,21.242 144.713,21.242 Q142.564,21.242 141.465,19.616 Q140.365,17.988 140.365,14.816 Z" fill="#f3ece7"/><path d="M160.061,21.000 L157.529,21.000 L155.162,16.899 L152.806,21.000 L150.272,21.000 L153.909,14.707 L150.373,8.606 L152.905,8.606 L155.162,12.550 L157.428,8.606 L159.960,8.606 L156.440,14.707 L160.061,21.000 Z" fill="#f3ece7"/><rect x="88" y="30" width="76" height="2" rx="1" fill="#c2504a" opacity="0.75"/><rect x="12.0" y="43" width="72" height="62" rx="9" fill="#1f1414" stroke="#3a2626" stroke-width="1.2"/><rect x="13.0" y="44" width="3" height="60" rx="1.5" fill="#c2504a" opacity="0.65"/><path d="M52.689284611573 71.10347749612694C53.22114397724634 70.7395737196136 53.97694412846635 70.43165513948694 53.97694412846635 70.43165513948694C53.97694412846635 70.43165513948694 51.849506665772985 70.82355151419361 49.75006180127295 70.99150710335361C47.174742767486244 71.21544788890027 44.43146814453953 71.24344048709361 43.03183823487284 71.04749229974027C39.75670424625279 70.59961072864694 44.823364519246205 69.39592900633357 44.823364519246205 69.39592900633357C44.823364519246205 69.39592900633357 42.86388264571284 69.25596601536691 40.4285266028928 70.43165513948694C37.54528898897942 71.83128504915362 47.51065394580625 72.47511480760029 52.689284611573 71.10347749612694ZM48.04251331147959 69.33994380994692C47.006787178326235 67.01655815990021 43.50771240415952 64.97309849178684 48.04251331147959 61.39004592304012C53.69701814653301 56.911230212106716 50.785787934426295 54.0 50.785787934426295 54.0C51.96147705854632 58.61877870190008 46.67087600000623 60.01840861156677 44.739386724666204 62.90164622548014C43.42373460957951 64.86112809901351 45.38321648311288 66.9325803653202 48.04251331147959 69.33994380994692ZM54.284862708593025 59.71049003144009C54.284862708593025 59.71049003144009 44.739386724666204 62.1178534760668 49.30218023017961 67.38046193641355C50.64582494345963 68.9200548370469 48.93827645366627 70.34767734490693 48.93827645366627 70.34767734490693C48.93827645366627 70.34767734490693 52.35337343325299 68.55615106053357 50.785787934426295 66.34473580326019C49.30218023017961 64.2732835369535 48.18247630244626 63.23755740380015 54.284862708593025 59.71049003144009ZM53.97694412846635 74.51857447571366C53.94895153027302 74.57455967210034 53.920958932079685 74.60255227029367 53.86497373569301 74.65853746668033C60.89111588221979 72.81102598592031 58.28780425023975 68.16425468582689 54.928692467039696 69.33994380994692C54.73274427968636 69.39592900633357 54.59278128871969 69.50789939910692 54.48081089594636 69.67585498826692C54.6767590832997 69.61986979188025 54.90069986884637 69.53589199730025 55.0966480561997 69.50789939910692C56.804196545993065 69.14399562259358 59.2395525888131 71.80329245096029 53.97694412846635 74.51857447571366ZM56.552263162253055 77.90567885710705C56.552263162253055 77.90567885710705 57.336055911666406 78.57750121374707 55.68449261825971 79.08136798122707C52.52132902241299 80.03311631980041 42.4999788691995 80.31304230173376 39.72871164805945 79.10936057942041C38.72097811309944 78.6894716065204 40.596482192052804 78.04564184807371 41.18432675411281 77.93367145530038C41.80016391436615 77.79370846433372 42.16406769087949 77.84969366072039 42.16406769087949 77.84969366072039C41.044363763146144 77.06590091130704 34.997962553386046 79.3612939631604 39.08488188961278 80.03311631980041C50.253928568752954 81.85263520236711 59.46349337435977 79.22133097219374 56.552263162253055 77.90567885710705ZM44.31949775176619 75.63827840344702C40.00863762999279 76.84196012576037 46.92280938374624 79.33330136496707 52.409358629639655 76.98192311672703C51.877499263966314 76.7859749293737 51.34563989829297 76.50604894744036 50.8697657290063 76.22612296550703C48.434409686186264 76.7019971347937 47.28671316025958 76.72998973298704 45.07529790298621 76.47805634924703C43.25577902041951 76.28210816189369 44.31949775176619 75.63827840344702 44.31949775176619 75.63827840344702ZM54.14489971762635 80.95687206018043C49.83403959585295 81.76865740778712 44.543438537312866 81.68467961320711 41.408267539659484 81.15282024753377C41.408267539659484 81.15282024753377 42.05209729810616 81.68467961320711 45.355223884919546 81.90862039875378C50.39389155971963 82.24453157707379 58.147841259273086 81.71267221140045 58.31579684843309 79.33330136496707C58.31579684843309 79.33330136496707 57.95189307191975 80.22906450715375 54.14489971762635 80.95687206018043ZM51.765528871192984 73.28690015520698C48.518387480766265 73.90273731546031 46.67087600000623 73.90273731546031 44.291505153572864 73.65080393172032C42.471986271006166 73.45485574436698 43.647675395126186 72.58708520037364 43.647675395126186 72.58708520037364C38.88893370225944 74.15467069920032 46.27897962529956 75.91820438538035 52.91322539711967 73.98671511004032C52.49333642421966 73.84675211907366 52.10144004951299 73.59481873533365 51.765528871192984 73.28690015520698Z" fill="#c2504a"/><path d="M41.558,96.074 C42.577,96.074 43.247,95.476 43.247,94.411 L43.247,90.544 L42.415,90.544 L42.415,94.418 C42.415,95.037 42.075,95.366 41.558,95.366 C41.042,95.366 40.702,95.037 40.702,94.418 L40.702,94.110 L39.863,94.110 L39.863,94.414 C39.863,95.476 40.540,96.074 41.558,96.074 Z M45.540,96.091 C46.202,96.091 46.591,95.759 46.748,95.440 L46.788,95.440 L46.788,96.000 L47.568,96.000 L47.568,93.282 C47.568,92.100 46.627,91.854 45.967,91.854 C45.238,91.854 44.550,92.140 44.272,92.872 L45.030,93.070 C45.143,92.791 45.443,92.510 45.979,92.510 C46.491,92.510 46.762,92.774 46.762,93.227 L46.762,93.250 C46.762,93.539 46.451,93.536 45.729,93.620 C44.957,93.708 44.154,93.913 44.154,94.842 C44.154,95.648 44.759,96.091 45.540,96.091 Z M45.719,95.443 C45.268,95.443 44.945,95.242 44.945,94.854 C44.945,94.432 45.319,94.279 45.774,94.216 C46.022,94.184 46.645,94.118 46.766,94.001 L46.766,94.525 C46.766,95.004 46.374,95.443 45.719,95.443 Z M49.824,96.000 L50.703,96.000 L52.248,91.905 L51.384,91.905 L50.574,94.232 C50.450,94.594 50.362,94.952 50.271,95.311 C50.179,94.952 50.083,94.594 49.959,94.232 L49.150,91.905 L48.279,91.905 L49.824,96.000 Z M54.109,96.091 C54.771,96.091 55.160,95.759 55.317,95.440 L55.357,95.440 L55.357,96.000 L56.137,96.000 L56.137,93.282 C56.137,92.100 55.196,91.854 54.537,91.854 C53.808,91.854 53.120,92.140 52.841,92.872 L53.599,93.070 C53.713,92.791 54.013,92.510 54.548,92.510 C55.060,92.510 55.331,92.774 55.331,93.227 L55.331,93.250 C55.331,93.539 55.021,93.536 54.299,93.620 C53.526,93.708 52.724,93.913 52.724,94.842 C52.724,95.648 53.328,96.091 54.109,96.091 Z M54.288,95.443 C53.837,95.443 53.515,95.242 53.515,94.854 C53.515,94.432 53.889,94.279 54.343,94.216 C54.592,94.184 55.214,94.118 55.336,94.001 L55.336,94.525 C55.336,95.004 54.943,95.443 54.288,95.443 Z" fill="#a08b85"/><rect x="90.0" y="43" width="72" height="62" rx="9" fill="#1f1414" stroke="#3a2626" stroke-width="1.2"/><rect x="91.0" y="44" width="3" height="60" rx="1.5" fill="#c2504a" opacity="0.65"/><path d="M137.0045766590389 54.0H114.9954233409611C113.32951945080092 54.0 111.98398169336384 55.31350114416476 111.98398169336384 56.97940503432495V79.02059496567506C111.98398169336384 80.68649885583524 113.32951945080092 82.0 114.9954233409611 82.0H137.0045766590389C138.67048054919908 82.0 140.01601830663617 80.68649885583524 140.01601830663617 79.02059496567506V56.97940503432495C140.01601830663617 55.31350114416476 138.67048054919908 54.0 137.0045766590389 54.0ZM127.23340961098398 75.84897025171625C127.23340961098398 78.5720823798627 125.63157894736842 79.82151029748285 123.2929061784897 79.82151029748285C121.17848970251717 79.82151029748285 119.99313501144165 78.73226544622426 119.35240274599542 77.4187643020595L121.49885583524028 76.10526315789474C121.91533180778032 76.8421052631579 122.29977116704805 77.48283752860412 123.19679633867277 77.48283752860412C124.06178489702518 77.48283752860412 124.60640732265446 77.1304347826087 124.60640732265446 75.81693363844394V66.84668192219681H127.23340961098398ZM133.48054919908466 79.82151029748285C131.045766590389 79.82151029748285 129.44393592677346 78.66819221967964 128.675057208238 77.1304347826087L130.82151029748283 75.88100686498856C131.39816933638446 76.8100686498856 132.1350114416476 77.48283752860412 133.41647597254004 77.48283752860412C134.50572082379864 77.48283752860412 135.21052631578948 76.97025171624715 135.21052631578948 76.20137299771167C135.21052631578948 75.30434782608697 134.50572082379864 74.98398169336384 133.2883295194508 74.43935926773456L132.61556064073227 74.15102974828376C130.7254004576659 73.35011441647598 129.47597254004577 72.32494279176203 129.47597254004577 70.17848970251717C129.47597254004577 68.19221967963387 130.98169336384439 66.71853546910756 133.3203661327231 66.71853546910756C134.9862700228833 66.71853546910756 136.20366132723112 67.26315789473685 137.0686498855835 68.80091533180779L135.01830663615561 70.11441647597255C134.56979405034326 69.31350114416476 134.08924485125857 68.99313501144165 133.3203661327231 68.99313501144165C132.55148741418765 68.99313501144165 132.07093821510298 69.47368421052633 132.07093821510298 70.11441647597255C132.07093821510298 70.91533180778032 132.55148741418765 71.23569794050344 133.67276887871853 71.7162471395881L134.34553775743706 72.0045766590389C136.58810068649885 72.96567505720824 137.837528604119 73.92677345537759 137.837528604119 76.13729977116705C137.837528604119 78.50800915331808 135.97940503432494 79.82151029748285 133.48054919908466 79.82151029748285Z" fill="#c2504a"/><path d="M110.621,96.066 C111.531,96.066 112.129,95.532 112.129,94.580 L112.129,91.126 L111.386,91.126 L111.386,94.587 C111.386,95.139 111.083,95.434 110.621,95.434 C110.159,95.434 109.856,95.139 109.856,94.587 L109.856,94.311 L109.106,94.311 L109.106,94.584 C109.106,95.532 109.711,96.066 110.621,96.066 Z M114.177,96.082 C114.769,96.082 115.116,95.784 115.257,95.500 L115.292,95.500 L115.292,96.000 L115.990,96.000 L115.990,93.572 C115.990,92.516 115.149,92.296 114.559,92.296 C113.908,92.296 113.294,92.552 113.045,93.206 L113.722,93.383 C113.824,93.134 114.092,92.882 114.570,92.882 C115.027,92.882 115.269,93.118 115.269,93.523 L115.269,93.543 C115.269,93.802 114.992,93.798 114.347,93.874 C113.657,93.952 112.940,94.136 112.940,94.966 C112.940,95.686 113.480,96.082 114.177,96.082 Z M114.338,95.503 C113.935,95.503 113.647,95.323 113.647,94.976 C113.647,94.599 113.981,94.462 114.387,94.407 C114.609,94.377 115.165,94.319 115.273,94.214 L115.273,94.682 C115.273,95.110 114.923,95.503 114.338,95.503 Z M118.005,96.000 L118.790,96.000 L120.170,92.342 L119.399,92.342 L118.675,94.420 C118.564,94.744 118.486,95.064 118.404,95.384 C118.322,95.064 118.237,94.744 118.126,94.420 L117.403,92.342 L116.624,92.342 L118.005,96.000 Z M121.833,96.082 C122.424,96.082 122.772,95.784 122.912,95.500 L122.948,95.500 L122.948,96.000 L123.645,96.000 L123.645,93.572 C123.645,92.516 122.804,92.296 122.215,92.296 C121.564,92.296 120.949,92.552 120.700,93.206 L121.377,93.383 C121.479,93.134 121.747,92.882 122.225,92.882 C122.683,92.882 122.925,93.118 122.925,93.523 L122.925,93.543 C122.925,93.802 122.647,93.798 122.002,93.874 C121.312,93.952 120.595,94.136 120.595,94.966 C120.595,95.686 121.135,96.082 121.833,96.082 Z M121.993,95.503 C121.590,95.503 121.302,95.323 121.302,94.976 C121.302,94.599 121.636,94.462 122.042,94.407 C122.264,94.377 122.820,94.319 122.929,94.214 L122.929,94.682 C122.929,95.110 122.578,95.503 121.993,95.503 Z M126.304,96.082 C127.450,96.082 128.110,95.480 128.110,94.652 C128.110,93.772 127.328,93.438 126.707,93.278 L126.232,93.154 C125.859,93.055 125.356,92.882 125.356,92.421 C125.356,92.008 125.728,91.708 126.321,91.708 C126.874,91.708 127.269,91.963 127.319,92.408 L128.045,92.408 C128.022,91.632 127.339,91.060 126.337,91.060 C125.356,91.060 124.609,91.620 124.609,92.464 C124.609,93.131 125.080,93.540 125.879,93.752 L126.449,93.909 C126.972,94.050 127.374,94.217 127.374,94.642 C127.374,95.113 126.920,95.427 126.301,95.427 C125.739,95.427 125.268,95.179 125.225,94.645 L124.475,94.645 C124.521,95.535 125.208,96.082 126.304,96.082 Z M130.479,96.075 C131.248,96.075 131.843,95.660 132.020,94.970 L131.339,94.806 C131.241,95.201 130.937,95.467 130.482,95.467 C129.821,95.467 129.504,94.887 129.504,94.191 C129.504,93.484 129.821,92.905 130.482,92.905 C130.931,92.905 131.228,93.164 131.327,93.540 L132.010,93.377 C131.830,92.699 131.238,92.296 130.479,92.296 C129.448,92.296 128.771,93.052 128.771,94.191 C128.771,95.320 129.448,96.075 130.479,96.075 Z M132.809,96.000 L133.528,96.000 L133.528,93.779 C133.528,93.298 133.894,92.958 134.398,92.958 C134.549,92.958 134.722,92.984 134.775,92.997 L134.775,92.310 C134.699,92.300 134.562,92.290 134.470,92.290 C134.042,92.290 133.679,92.532 133.545,92.932 L133.505,92.932 L133.505,92.342 L132.809,92.342 L132.809,96.000 Z M135.400,96.000 L136.119,96.000 L136.119,92.342 L135.400,92.342 L135.400,96.000 Z M135.762,91.783 C136.011,91.783 136.217,91.594 136.217,91.358 C136.217,91.118 136.011,90.929 135.762,90.929 C135.514,90.929 135.308,91.118 135.308,91.358 C135.308,91.594 135.514,91.783 135.762,91.783 Z M137.088,97.367 L137.807,97.367 L137.807,95.427 L137.847,95.427 C137.973,95.660 138.239,96.072 138.903,96.072 C139.793,96.072 140.430,95.362 140.430,94.181 C140.430,92.990 139.779,92.296 138.903,92.296 C138.219,92.296 137.973,92.712 137.847,92.938 L137.787,92.938 L137.787,92.342 L137.088,92.342 L137.088,97.367 Z M138.743,95.460 C138.135,95.460 137.794,94.936 137.794,94.174 C137.794,93.415 138.124,92.909 138.743,92.909 C139.377,92.909 139.694,93.455 139.694,94.174 C139.694,94.901 139.368,95.460 138.743,95.460 Z M142.792,92.342 L142.063,92.342 L142.063,91.472 L141.344,91.472 L141.344,92.342 L140.811,92.342 L140.811,92.928 L141.344,92.928 L141.344,95.070 C141.344,95.692 141.727,96.049 142.390,96.049 C142.557,96.049 142.740,96.026 142.894,95.974 L142.766,95.398 C142.678,95.418 142.538,95.437 142.463,95.437 C142.178,95.437 142.063,95.306 142.063,95.012 L142.063,92.928 L142.792,92.928 L142.792,92.342 Z" fill="#a08b85"/><rect x="168.0" y="43" width="72" height="62" rx="9" fill="#1f1414" stroke="#3a2626" stroke-width="1.2"/><rect x="169.0" y="44" width="3" height="60" rx="1.5" fill="#c2504a" opacity="0.65"/><path d="M217.47361898570136 64.54313435790627C216.99384633005326 62.62404373531395 216.09827070617686 61.152740924659824 214.14719523987466 61.152740924659824H211.62039258679476V64.09534654596807C211.62039258679476 66.39825529307886 209.70130196420243 68.34933075938106 207.46236290451137 68.34933075938106H200.7775305691481C198.95439447768538 68.34933075938106 197.4511068233214 69.91658810116479 197.4511068233214 71.7397241926275V78.10470809089206C197.4511068233214 79.92784418235478 199.01836416510514 80.98334402478055 200.7775305691481 81.4951015241385C202.88853025399965 82.10281355462608 204.93556025143147 82.23075292946557 207.46236290451137 81.4951015241385C209.1575596211346 81.01532886849043 210.78878665033807 80.0237987134844 210.78878665033807 78.10470809089206V75.54592059410228H204.13593915868466V74.71431465764562H214.14719523987466C216.09827070617686 74.71431465764562 216.80193726779405 73.33896637812111 217.47361898570136 71.32392122439917C218.17728554731855 69.24490638325747 218.14530070360868 67.22986122953553 217.47361898570136 64.54313435790627ZM207.87816587273971 77.24111731072551C208.5818324343569 77.24111731072551 209.12557477742473 77.81684449750321 209.12557477742473 78.5205110591204C209.12557477742473 79.22417762073759 208.5818324343569 79.79990480751529 207.87816587273971 79.79990480751529C207.2064841548324 79.79990480751529 206.6307569680547 79.22417762073759 206.6307569680547 78.5205110591204C206.6307569680547 77.81684449750321 207.2064841548324 77.24111731072551 207.87816587273971 77.24111731072551ZM200.48966697575923 67.51772482292438H207.14251446741267C208.99763540258525 67.51772482292438 210.50092305694923 65.98245232485053 210.50092305694923 64.12733138967793V57.73036264770351C210.50092305694923 55.9072265562408 208.96565055887538 54.59584796413604 207.14251446741267 54.275999527037314C204.9035754077216 53.89218140251885 202.5047121294812 53.92416624622872 200.48966697575923 54.275999527037314C197.6750007292905 54.78775702639527 197.13125838622267 55.84325686882106 197.13125838622267 57.76234749141338V60.28915014449328H203.81609072158597V61.152740924659824H194.63644057685264C192.68536511055044 61.152740924659824 191.0221532376371 62.3361801419251 190.47841089456927 64.54313435790627C189.8706988640817 67.06993701098617 189.83871402037184 68.66917919647977 190.47841089456927 71.32392122439917C190.95818355021734 73.30698153441124 192.07765308006287 74.71431465764562 194.02872854636507 74.71431465764562H196.299652449766V71.64376966149788C196.299652449766 69.43681544551671 198.21874307235834 67.51772482292438 200.48966697575923 67.51772482292438ZM200.07386400753091 58.59395342787006C199.37019744591373 58.59395342787006 198.79447025913603 58.01822624109236 198.79447025913603 57.31455967947517C198.79447025913603 56.610893117857984 199.37019744591373 56.06715077479016 200.07386400753091 56.06715077479016C200.74554572543823 56.06715077479016 201.32127291221593 56.610893117857984 201.32127291221593 57.31455967947517C201.32127291221593 58.01822624109236 200.7775305691481 58.59395342787006 200.07386400753091 58.59395342787006Z" fill="#c2504a"/><path d="M191.957,96.000 L192.791,96.000 L192.791,94.089 L193.905,94.089 C195.172,94.089 195.802,93.323 195.802,92.316 C195.802,91.309 195.176,90.544 193.912,90.544 L191.957,90.544 L191.957,96.000 Z M192.791,93.382 L192.791,91.257 L193.817,91.257 C194.627,91.257 194.956,91.700 194.956,92.316 C194.956,92.931 194.627,93.382 193.824,93.382 L192.791,93.382 Z M196.652,97.472 C196.750,97.516 196.962,97.560 197.216,97.560 C197.874,97.560 198.281,97.223 198.530,96.567 L200.310,91.905 L199.446,91.905 L198.622,94.232 C198.494,94.587 198.402,94.942 198.310,95.293 C198.222,94.942 198.138,94.590 198.014,94.232 L197.205,91.905 L196.333,91.905 L197.889,96.019 L197.802,96.319 C197.652,96.846 197.359,96.948 196.941,96.839 L196.849,96.817 L196.652,97.472 Z M202.771,91.905 L201.954,91.905 L201.954,90.932 L201.149,90.932 L201.149,91.905 L200.552,91.905 L200.552,92.562 L201.149,92.562 L201.149,94.959 C201.149,95.655 201.578,96.055 202.321,96.055 C202.507,96.055 202.712,96.029 202.884,95.971 L202.741,95.326 C202.643,95.348 202.486,95.370 202.401,95.370 C202.083,95.370 201.954,95.223 201.954,94.894 L201.954,92.562 L202.771,92.562 L202.771,91.905 Z M204.379,93.575 C204.379,92.927 204.782,92.557 205.331,92.557 C205.866,92.557 206.195,92.909 206.195,93.499 L206.195,96.000 L207.005,96.000 L207.005,93.400 C207.005,92.389 206.445,91.854 205.609,91.854 C205.049,91.854 204.628,92.100 204.371,92.641 L204.371,90.544 L203.573,90.544 L203.573,96.000 L204.379,96.000 L204.379,93.575 Z M209.805,96.084 C210.960,96.084 211.721,95.238 211.721,93.975 C211.721,92.700 210.960,91.854 209.805,91.854 C208.652,91.854 207.894,92.700 207.894,93.975 C207.894,95.238 208.652,96.084 209.805,96.084 Z M209.805,95.404 C209.066,95.404 208.714,94.751 208.714,93.975 C208.714,93.188 209.066,92.536 209.805,92.536 C210.553,92.536 210.905,93.191 210.905,93.975 C210.905,94.751 210.553,95.404 209.805,95.404 Z M213.420,93.575 C213.420,92.927 213.823,92.557 214.373,92.557 C214.907,92.557 215.237,92.909 215.237,93.499 L215.237,96.000 L216.043,96.000 L216.043,93.400 C216.043,92.389 215.486,91.854 214.651,91.854 C214.072,91.854 213.644,92.114 213.387,92.693 L213.384,91.905 L212.615,91.905 L212.615,96.000 L213.420,96.000 L213.420,93.575 Z" fill="#a08b85"/><rect x="12.0" y="111" width="72" height="62" rx="9" fill="#1f1414" stroke="#3a2626" stroke-width="1.2"/><rect x="13.0" y="112" width="3" height="60" rx="1.5" fill="#c2504a" opacity="0.65"/><circle cx="48.0" cy="136" r="13" fill="none" stroke="#c2504a" stroke-width="2"/><circle cx="59.0" cy="125" r="3.2" fill="#c2504a"/><path d="M 50.0 123 C 62.0 118, 67.0 131, 60.0 139" fill="none" stroke="#c2504a" stroke-width="1.5" stroke-linecap="round"/><path d="M40.641,140.000 L40.641,133.438 L41.937,133.438 L41.937,138.857 L44.711,138.857 L44.711,140.000 L40.641,140.000 Z M45.774,138.282 L45.774,135.078 L47.062,135.078 L47.062,138.083 Q47.062,138.616 47.211,138.845 Q47.360,139.073 47.707,139.073 Q48.055,139.073 48.250,138.765 Q48.446,138.457 48.446,137.903 L48.446,135.078 L49.734,135.078 L49.734,140.000 L48.446,140.000 L48.446,139.270 Q48.309,139.679 47.982,139.904 Q47.655,140.128 47.193,140.128 Q46.490,140.128 46.131,139.662 Q45.774,139.196 45.774,138.282 Z M53.566,137.688 Q52.845,137.688 52.559,137.874 Q52.274,138.058 52.274,138.505 Q52.274,138.840 52.471,139.038 Q52.669,139.235 53.008,139.235 Q53.517,139.235 53.798,138.851 Q54.079,138.466 54.079,137.777 L54.079,137.688 L53.566,137.688 Z M55.359,137.192 L55.359,140.000 L54.079,140.000 L54.079,139.450 Q53.847,139.776 53.482,139.952 Q53.118,140.128 52.677,140.128 Q51.838,140.128 51.370,139.684 Q50.903,139.239 50.903,138.445 Q50.903,137.583 51.461,137.172 Q52.019,136.761 53.188,136.761 L54.079,136.761 L54.079,136.546 Q54.079,136.234 53.853,136.074 Q53.627,135.913 53.188,135.913 Q52.727,135.913 52.293,136.030 Q51.860,136.145 51.391,136.401 L51.391,135.302 Q51.817,135.126 52.255,135.043 Q52.696,134.960 53.188,134.960 Q54.387,134.960 54.873,135.448 Q55.359,135.935 55.359,137.192 Z" fill="#f3ece7"/><path d="M42.068,164.000 L45.375,164.000 L45.375,163.282 L42.902,163.282 L42.902,158.544 L42.068,158.544 L42.068,164.000 Z M47.641,164.052 C48.204,164.052 48.644,163.798 48.900,163.205 L48.904,164.000 L49.677,164.000 L49.677,159.905 L48.868,159.905 L48.868,162.330 C48.868,162.978 48.461,163.348 47.916,163.348 C47.381,163.348 47.051,162.997 47.051,162.407 L47.051,159.905 L46.246,159.905 L46.246,162.506 C46.246,163.516 46.806,164.052 47.641,164.052 Z M51.904,164.091 C52.566,164.091 52.955,163.759 53.112,163.440 L53.152,163.440 L53.152,164.000 L53.932,164.000 L53.932,161.282 C53.932,160.100 52.991,159.854 52.332,159.854 C51.603,159.854 50.915,160.140 50.636,160.872 L51.394,161.070 C51.508,160.791 51.808,160.510 52.343,160.510 C52.856,160.510 53.126,160.774 53.126,161.227 L53.126,161.250 C53.126,161.539 52.816,161.536 52.094,161.620 C51.322,161.708 50.519,161.913 50.519,162.842 C50.519,163.648 51.123,164.091 51.904,164.091 Z M52.083,163.443 C51.632,163.443 51.310,163.242 51.310,162.854 C51.310,162.432 51.684,162.279 52.138,162.216 C52.387,162.184 53.009,162.118 53.131,162.001 L53.131,162.525 C53.131,163.004 52.738,163.443 52.083,163.443 Z" fill="#a08b85"/><rect x="90.0" y="111" width="72" height="62" rx="9" fill="#1f1414" stroke="#3a2626" stroke-width="1.2"/><rect x="91.0" y="112" width="3" height="60" rx="1.5" fill="#c2504a" opacity="0.65"/><path d="M113.98627002288329 121.99999999999999 116.16475972540046 146.76430205949657 125.96796338672769 150.0 135.83524027459953 146.76430205949657 138.0137299771167 121.99999999999999ZM133.27231121281463 129.9771167048055H121.77116704805492L122.02745995423341 133.08466819221968H133.01601830663614L132.15102974828375 142.37528604118992L126.03203661327231 144.04118993135012V144.07322654462243H125.96796338672769L119.78489702517162 142.37528604118992L119.4324942791762 137.63386727688786H122.41189931350114L122.63615560640731 140.0045766590389L125.96796338672769 140.9016018306636L129.33180778032036 140.0045766590389L129.7162471395881 136.12814645308924H119.27231121281464L118.47139588100686 126.99771167048054H133.56064073226543Z" fill="#c2504a"/><path d="M115.684,164.000 L116.518,164.000 L116.518,161.568 L119.220,161.568 L119.220,164.000 L120.060,164.000 L120.060,158.544 L119.220,158.544 L119.220,160.850 L116.518,160.850 L116.518,158.544 L115.684,158.544 L115.684,164.000 Z M120.993,159.261 L122.696,159.261 L122.696,164.000 L123.535,164.000 L123.535,159.261 L125.231,159.261 L125.231,158.544 L120.993,158.544 L120.993,159.261 Z M126.165,164.000 L126.977,164.000 L126.977,161.063 C126.977,160.645 126.959,159.946 126.944,159.375 C127.153,160.048 127.369,160.733 127.494,161.063 L128.626,164.000 L129.339,164.000 L130.456,161.063 C130.580,160.722 130.808,160.019 131.002,159.356 C130.991,159.964 130.973,160.660 130.973,161.063 L130.973,164.000 L131.804,164.000 L131.804,158.544 L130.566,158.544 L129.394,161.675 C129.288,161.975 129.116,162.583 128.988,163.070 C128.864,162.571 128.691,161.968 128.585,161.675 L127.395,158.544 L126.165,158.544 L126.165,164.000 Z M133.009,164.000 L136.316,164.000 L136.316,163.282 L133.844,163.282 L133.844,158.544 L133.009,158.544 L133.009,164.000 Z" fill="#a08b85"/><rect x="168.0" y="111" width="72" height="62" rx="9" fill="#1f1414" stroke="#3a2626" stroke-width="1.2"/><rect x="169.0" y="112" width="3" height="60" rx="1.5" fill="#c2504a" opacity="0.65"/><path d="M191.9862700228833 121.99999999999999 194.16475972540047 146.76430205949657 204.0 150.0 213.83524027459956 146.76430205949657 216.01372997711672 121.99999999999999ZM211.59267734553777 126.99771167048054 211.27231121281466 129.94508009153316 204.06407322654462 133.02059496567506 204.0320366132723 133.05263157894737H211.01601830663617L210.21510297482837 142.21510297482837L204.06407322654462 144.0091533180778L197.88100686498856 142.18306636155606L197.49656750572083 137.56979405034323H200.5400457665904L200.76430205949657 139.94050343249427L204.0320366132723 140.77345537757435L207.45995423340963 139.81235697940502L207.6842105263158 135.9679633867277L197.30434782608697 135.93592677345538H197.27231121281466L197.04805491990848 133.05263157894737L204.06407322654462 130.10526315789474L204.4805491990847 129.94508009153316H196.79176201373L196.40732265446226 126.99771167048054Z" fill="#c2504a"/><path d="M199.263,164.074 C200.468,164.074 201.347,163.311 201.516,162.232 L200.673,162.232 C200.534,162.927 199.952,163.311 199.270,163.311 C198.336,163.311 197.633,162.601 197.633,161.275 C197.633,159.957 198.333,159.232 199.270,159.232 C199.952,159.232 200.534,159.613 200.673,160.309 L201.512,160.309 C201.329,159.151 200.413,158.470 199.263,158.470 C197.850,158.470 196.806,159.525 196.806,161.275 C196.806,163.018 197.846,164.074 199.263,164.074 Z M204.328,164.091 C205.610,164.091 206.349,163.418 206.349,162.491 C206.349,161.506 205.474,161.132 204.779,160.953 L204.247,160.814 C203.830,160.704 203.266,160.510 203.266,159.993 C203.266,159.532 203.683,159.195 204.347,159.195 C204.965,159.195 205.408,159.481 205.463,159.979 L206.277,159.979 C206.251,159.111 205.486,158.470 204.364,158.470 C203.266,158.470 202.430,159.097 202.430,160.041 C202.430,160.788 202.958,161.246 203.852,161.484 L204.489,161.660 C205.075,161.817 205.525,162.004 205.525,162.480 C205.525,163.007 205.017,163.359 204.324,163.359 C203.695,163.359 203.168,163.081 203.120,162.484 L202.280,162.484 C202.332,163.480 203.101,164.091 204.328,164.091 Z M209.173,164.091 C210.455,164.091 211.194,163.418 211.194,162.491 C211.194,161.506 210.319,161.132 209.624,160.953 L209.092,160.814 C208.675,160.704 208.111,160.510 208.111,159.993 C208.111,159.532 208.528,159.195 209.191,159.195 C209.810,159.195 210.253,159.481 210.308,159.979 L211.122,159.979 C211.096,159.111 210.331,158.470 209.209,158.470 C208.111,158.470 207.275,159.097 207.275,160.041 C207.275,160.788 207.803,161.246 208.697,161.484 L209.334,161.660 C209.920,161.817 210.370,162.004 210.370,162.480 C210.370,163.007 209.862,163.359 209.169,163.359 C208.540,163.359 208.013,163.081 207.965,162.484 L207.125,162.484 C207.177,163.480 207.946,164.091 209.173,164.091 Z" fill="#a08b85"/><rect x="12.0" y="179" width="72" height="62" rx="9" fill="#1f1414" stroke="#3a2626" stroke-width="1.2"/><rect x="13.0" y="180" width="3" height="60" rx="1.5" fill="#c2504a" opacity="0.65"/><path d="M48.01423125794155 218.0C48.384243964421856 218.0 48.72579415501906 217.91461245235072 49.06734434561627 217.71537484116902L59.342312579415506 211.79517153748412C59.996950444726814 211.39669631512072 60.42388818297332 210.68513341804322 60.42388818297332 209.9166454891995V198.07623888182974C60.42388818297332 197.30775095298603 59.996950444726814 196.56772554002544 59.342312579415506 196.19771283354513L49.06734434561627 190.27750952986025C48.41270648030496 189.90749682337994 47.58729351969505 189.90749682337994 46.93265565438374 190.27750952986025L36.6576874205845 196.19771283354513C36.00304955527319 196.56772554002544 35.576111817026685 197.30775095298603 35.576111817026685 198.07623888182974V209.9166454891995C35.576111817026685 210.68513341804322 36.00304955527319 211.4251588310038 36.6576874205845 211.79517153748412L39.36162642947904 213.33214739517155C40.670902160101654 213.98678526048286 41.12630241423126 213.98678526048286 41.72401524777637 213.98678526048286C43.6594663278272 213.98678526048286 44.76950444726811 212.79135959339266 44.76950444726811 210.77052096569253V199.07242693773827C44.76950444726811 198.90165184243966 44.62719186785261 198.78780177890727 44.45641677255401 198.78780177890727H43.14714104193139C42.97636594663278 198.78780177890727 42.862515883100386 198.90165184243966 42.862515883100386 199.07242693773827V210.77052096569253C42.862515883100386 211.68132147395173 41.92325285895807 212.59212198221093 40.38627700127065 211.82363405336724L37.568487928843716 210.20127064803052C37.45463786531131 210.1443456162643 37.42617534942821 210.0304955527319 37.42617534942821 209.9166454891995V198.07623888182974C37.42617534942821 197.96238881829734 37.45463786531131 197.84853875476495 37.568487928843716 197.79161372299873L47.84345616264295 191.87141041931386C47.928843710292256 191.81448538754768 48.07115628970776 191.81448538754768 48.156543837357056 191.87141041931386L58.43151207115629 197.79161372299873C58.545362134688695 197.84853875476495 58.573824650571794 197.96238881829734 58.573824650571794 198.07623888182974V209.9166454891995C58.573824650571794 210.0304955527319 58.516899618805596 210.1443456162643 58.43151207115629 210.20127064803052L48.156543837357056 216.1214739517154C48.07115628970776 216.1783989834816 47.928843710292256 216.1783989834816 47.84345616264295 216.1214739517154L45.19644218551461 214.55603557814487C45.111054637865315 214.49911054637866 45.02566709021601 214.47064803049557 44.940279542566714 214.52757306226178C44.2002541296061 214.95451080050827 44.0864040660737 215.0114358322745 43.40330368487929 215.23913595933928C43.23252858958069 215.29606099110546 42.97636594663278 215.4099110546379 43.488691232528595 215.6945362134689L46.93265565438374 217.71537484116902C47.27420584498094 217.91461245235072 47.64421855146125 218.0 48.01423125794155 218.0ZM56.296823379923765 206.33036848792887C56.296823379923765 204.11029224904703 54.78831003811945 203.54104193138502 51.6289707750953 203.1141041931385C48.44116899618806 202.687166454892 48.12808132147396 202.45946632782722 48.12808132147396 201.7194409148666C48.12808132147396 201.0932655654384 48.384243964421856 200.26785260482848 50.74663278271919 200.26785260482848C52.85285895806862 200.26785260482848 53.64980940279543 200.7232528589581 53.96289707750954 202.1463786531131C53.99135959339263 202.2886912325286 54.105209656925034 202.402541296061 54.24752223634054 202.402541296061H55.58526048284625C55.670648030495556 202.402541296061 55.75603557814486 202.3456162642948 55.81296060991106 202.2886912325286C55.86988564167726 202.2317662007624 55.86988564167726 202.1463786531131 55.86988564167726 202.0609911054638C55.670648030495556 199.61321473951716 54.048284625158836 198.47471410419314 50.74663278271919 198.47471410419314C47.81499364675985 198.47471410419314 46.07878017789073 199.69860228716647 46.07878017789073 201.7763659466328C46.07878017789073 204.02490470139773 47.81499364675985 204.65108005082593 50.63278271918679 204.93570520965693C53.99135959339263 205.27725540025415 54.24752223634054 205.76111817026685 54.24752223634054 206.41575603557817C54.24752223634054 207.55425667090216 53.33672172808133 208.03811944091487 51.1735705209657 208.03811944091487C48.44116899618806 208.03811944091487 47.84345616264295 207.35501905972046 47.64421855146125 206.01728081321474C47.615756035578144 205.87496823379925 47.50190597204575 205.76111817026685 47.359593392630245 205.76111817026685H46.02185514612452C45.85108005082593 205.76111817026685 45.737229987293524 205.87496823379925 45.737229987293524 206.04574332909786C45.737229987293524 207.78195679796698 46.67649301143584 209.8597204574333 51.1735705209657 209.8597204574333C54.41829733163914 209.8597204574333 56.296823379923765 208.5789072426938 56.296823379923765 206.33036848792887Z" fill="#c2504a"/><path d="M34.749,232.000 L35.595,232.000 L35.595,229.089 C35.595,228.807 35.566,228.243 35.532,227.557 C35.928,228.290 36.137,228.667 36.404,229.096 L38.246,232.000 L39.213,232.000 L39.213,226.544 L38.367,226.544 L38.367,229.649 C38.367,229.963 38.382,230.473 38.422,231.000 C38.180,230.477 37.934,230.063 37.767,229.792 L35.712,226.544 L34.749,226.544 L34.749,232.000 Z M42.080,232.084 C43.234,232.084 43.996,231.238 43.996,229.975 C43.996,228.700 43.234,227.854 42.080,227.854 C40.927,227.854 40.169,228.700 40.169,229.975 C40.169,231.238 40.927,232.084 42.080,232.084 Z M42.080,231.404 C41.340,231.404 40.989,230.751 40.989,229.975 C40.989,229.188 41.340,228.536 42.080,228.536 C42.827,228.536 43.179,229.191 43.179,229.975 C43.179,230.751 42.827,231.404 42.080,231.404 Z M46.413,232.081 C47.152,232.081 47.449,231.619 47.592,231.359 L47.658,231.359 L47.658,232.000 L48.442,232.000 L48.442,226.544 L47.635,226.544 L47.635,228.572 L47.592,228.572 C47.452,228.319 47.175,227.854 46.413,227.854 C45.427,227.854 44.699,228.631 44.699,229.963 C44.699,231.286 45.417,232.081 46.413,232.081 Z M46.589,231.395 C45.889,231.395 45.522,230.770 45.522,229.956 C45.522,229.151 45.877,228.539 46.589,228.539 C47.280,228.539 47.650,229.107 47.650,229.956 C47.650,230.809 47.273,231.395 46.589,231.395 Z M51.291,232.084 C52.166,232.084 52.792,231.655 52.986,231.018 L52.228,230.839 C52.085,231.220 51.748,231.418 51.298,231.418 C50.627,231.418 50.174,230.989 50.145,230.198 L53.048,230.198 L53.048,229.913 C53.048,228.436 52.154,227.854 51.220,227.854 C50.074,227.854 49.335,228.722 49.335,229.982 C49.335,231.252 50.082,232.084 51.291,232.084 Z M50.148,229.598 C50.191,229.008 50.580,228.521 51.225,228.521 C51.844,228.521 52.192,228.953 52.250,229.598 L50.148,229.598 Z M54.528,232.055 C54.828,232.055 55.066,231.817 55.066,231.516 C55.066,231.213 54.828,230.975 54.528,230.975 C54.224,230.975 53.985,231.213 53.985,231.516 C53.985,231.817 54.224,232.055 54.528,232.055 Z M56.201,227.905 L56.201,232.260 C56.201,232.637 56.044,232.839 55.666,232.839 L55.539,232.839 L55.539,233.530 L55.699,233.530 C56.545,233.530 57.014,233.099 57.011,232.264 L57.011,227.905 L56.201,227.905 Z M56.607,227.280 C56.886,227.280 57.117,227.068 57.117,226.804 C57.117,226.536 56.886,226.323 56.607,226.323 C56.333,226.323 56.102,226.536 56.102,226.804 C56.102,227.068 56.333,227.280 56.607,227.280 Z M59.563,232.084 C60.563,232.084 61.251,231.557 61.251,230.809 C61.251,230.242 60.892,229.875 60.134,229.704 L59.476,229.558 C59.024,229.455 58.842,229.294 58.842,229.022 C58.842,228.715 59.179,228.491 59.622,228.491 C60.105,228.491 60.336,228.748 60.442,229.034 L61.163,228.876 C60.987,228.269 60.501,227.854 59.614,227.854 C58.688,227.854 58.028,228.341 58.028,229.074 C58.028,229.660 58.395,230.034 59.157,230.206 L59.845,230.363 C60.234,230.451 60.420,230.620 60.420,230.880 C60.420,231.183 60.091,231.433 59.571,231.433 C59.095,231.433 58.783,231.235 58.669,230.806 L57.911,230.964 C58.058,231.688 58.673,232.084 59.563,232.084 Z" fill="#a08b85"/><rect x="90.0" y="179" width="72" height="62" rx="9" fill="#1f1414" stroke="#3a2626" stroke-width="1.2"/><rect x="91.0" y="180" width="3" height="60" rx="1.5" fill="#c2504a" opacity="0.65"/><path d="M139.456 202.768 127.264 190.54399999999998C126.944 190.224 126.496 190.0 125.984 190.0C125.472 190.0 125.024 190.224 124.70400000000001 190.54399999999998L122.144 193.072L125.376 196.304C127.072 195.72799999999998 128.672 197.328 128.096 199.024L131.2 202.128C133.344 201.392 135.008 204.07999999999998 133.40800000000002 205.67999999999998C131.744 207.344 129.024 205.488 129.92000000000002 203.344L127.008 200.464V208.07999999999998C128.576 208.84799999999998 128.416 210.672 127.584 211.504C127.2 211.88799999999998 126.688 212.144 126.08 212.144C125.472 212.144 124.928 211.88799999999998 124.544 211.504C123.456 210.416 123.84 208.59199999999998 125.248 208.016V200.304C123.936 199.76 123.712 198.416 124.096 197.51999999999998L120.896 194.32L112.544 202.70399999999998C112.224 203.024 112.0 203.47199999999998 112.0 203.98399999999998C112.0 204.49599999999998 112.224 204.944 112.544 205.26399999999998L124.768 217.488C125.088 217.808 125.504 218.0 126.016 218.0C126.528 218.0 126.976 217.808 127.296 217.488L139.456 205.328C139.776 205.00799999999998 140.0 204.56 140.0 204.048C140.0 203.536 139.776 203.088 139.456 202.768Z" fill="#c2504a"/><path d="M123.739,232.074 C125.061,232.074 126.017,231.209 126.017,229.829 L126.017,229.202 L123.863,229.202 L123.863,229.891 L125.200,229.891 C125.182,230.762 124.607,231.311 123.742,231.311 C122.779,231.311 122.083,230.587 122.083,229.272 C122.083,227.954 122.791,227.232 123.710,227.232 C124.427,227.232 124.914,227.631 125.112,228.269 L125.969,228.269 C125.786,227.206 124.878,226.470 123.703,226.470 C122.288,226.470 121.256,227.532 121.256,229.275 C121.256,231.000 122.255,232.074 123.739,232.074 Z M126.991,232.000 L127.796,232.000 L127.796,227.905 L126.991,227.905 L126.991,232.000 Z M127.397,227.280 C127.676,227.280 127.907,227.068 127.907,226.804 C127.907,226.536 127.676,226.323 127.397,226.323 C127.119,226.323 126.888,226.536 126.888,226.804 C126.888,227.068 127.119,227.280 127.397,227.280 Z M130.631,227.905 L129.814,227.905 L129.814,226.932 L129.009,226.932 L129.009,227.905 L128.412,227.905 L128.412,228.562 L129.009,228.562 L129.009,230.959 C129.009,231.655 129.438,232.055 130.181,232.055 C130.367,232.055 130.572,232.029 130.744,231.971 L130.601,231.326 C130.503,231.348 130.346,231.370 130.261,231.370 C129.943,231.370 129.814,231.223 129.814,230.894 L129.814,228.562 L130.631,228.562 L130.631,227.905 Z" fill="#a08b85"/><rect x="168.0" y="179" width="72" height="62" rx="9" fill="#1f1414" stroke="#3a2626" stroke-width="1.2"/><rect x="169.0" y="180" width="3" height="60" rx="1.5" fill="#c2504a" opacity="0.65"/><path d="M203.80513779192867 196.74547044858178C203.86111679980073 196.7734599525178 203.91709580767278 196.82943896038987 203.9730748155448 196.82943896038987C204.02905382341686 196.82943896038987 204.14101183916097 196.80144945645384 204.14101183916097 196.74547044858178C204.14101183916097 196.6615019367737 204.0570433273529 196.63351243283768 203.9730748155448 196.60552292890168C203.88910630373675 196.57753342496565 203.74915878405662 196.5215544170936 203.66519027224857 196.57753342496565C203.63720076831254 196.57753342496565 203.63720076831254 196.60552292890168 203.63720076831254 196.63351243283768C203.66519027224857 196.71748094464576 203.74915878405662 196.71748094464576 203.80513779192867 196.74547044858178ZM202.60158912267966 196.82943896038987C202.65756813055168 196.82943896038987 202.71354713842373 196.7734599525178 202.7695261462958 196.74547044858178C202.82550515416784 196.71748094464576 202.93746316991192 196.71748094464576 202.96545267384795 196.6615019367737C202.96545267384795 196.63351243283768 202.96545267384795 196.60552292890168 202.93746316991192 196.60552292890168C202.85349465810387 196.54954392102962 202.71354713842373 196.57753342496565 202.62957862661568 196.60552292890168C202.5456101148076 196.63351243283768 202.46164160299952 196.6615019367737 202.46164160299952 196.74547044858178C202.46164160299952 196.80144945645384 202.5456101148076 196.82943896038987 202.60158912267966 196.82943896038987ZM214.69305482304202 212.08371860552293C214.49712829548983 211.85980257403475 214.41315978368178 211.43996001499437 214.30120176793767 210.992127952018C214.1892437521936 210.54429588904162 214.1052752403855 210.0684743221292 213.7414116892172 209.76058977883295C213.6574431774091 209.7046107709609 213.60146416953708 209.67662126702487 213.517495657729 209.62064225915282C213.43352714592092 209.56466325128076 213.3775481380489 209.53667374734474 213.2935796262408 209.50868424340874C213.79739069708924 208.02524053479945 213.60146416953708 206.51380732225417 213.09765309868862 205.17031113332501C212.48188401209612 203.5189304010996 211.39029335859118 202.09146570036236 210.55060824051046 201.11183306260153C209.62695461062168 199.93627389728852 208.70330098073288 198.81669373984755 208.7312904846689 197.16531300762216C208.75927998860493 194.64625765338 209.01118552402914 190.0 204.58884390213734 190.0C198.99094311493255 190.0 200.36242880779773 195.65387979507685 200.30644979992567 197.38922903911035C200.2224812881176 198.67674622016744 199.97057575269338 199.65637885792827 199.10290113067666 200.91590653504937C198.06728948504374 202.14744470823442 196.6118352803705 204.1346994876921 195.9120976819699 206.2059227789579C195.57622363473763 207.18555541671873 195.4362761150575 208.1651880544796 195.57622363473763 209.1168311883044C195.2123600835693 209.42471573160066 194.93246504420907 209.92852680244908 194.65257000484883 210.23641134574535C194.42865397336064 210.46032737723354 194.09277992612834 210.54429588904162 193.72891637496005 210.68424340872173C193.36505282379173 210.82419092840186 192.97319976868738 210.992127952018 192.72129423326317 211.4679495189304C192.6093362175191 211.69186555041858 192.58134671358306 211.9437710858428 192.58134671358306 212.167687117331C192.58134671358306 212.3916031488192 192.6093362175191 212.58752967637136 192.6373257214551 212.81144570785955C192.69330472932714 213.25927777083595 192.77727324113522 213.65113082594027 192.69330472932714 213.9310258653005C192.4134096899669 214.71473197550918 192.35743068209487 215.27452205422966 192.55335720964703 215.666375109334C192.7492837371992 216.05822816443833 193.1971158001756 216.2261651880545 193.672937367088 216.33812320379857C194.6245805009128 216.53404973135073 195.8841081780339 216.5060602274147 196.89173031973075 217.0378608021992C197.9833209732357 217.59765088091964 199.10290113067666 217.79357740847183 199.97057575269338 217.59765088091964C200.61433434322194 217.45770336123954 201.11814541407037 217.0658503061352 201.37005094949458 216.4780707234787C202.04179904395917 216.4780707234787 202.79751565023182 216.19817568411847 204.00106431948083 216.1421966762464C204.81275993362553 216.08621766837436 205.8483715792584 216.42209171560665 207.02393074457143 216.3661127077346C207.05192024850746 216.4780707234787 207.1078992563795 216.61801824315882 207.16387826425157 216.72997625890292C207.61171032722794 217.6536298887917 208.4793849492447 218.07347244783207 209.37504907519744 217.989503936024C210.27071320115022 217.9055354242159 211.22235633497502 217.37373484943146 212.00606244518372 216.45008121954268C212.76177905145636 215.5544170935899 213.96532772070537 215.19055354242158 214.77702333485007 214.68674247157315C215.16887638995442 214.43483693614894 215.5327399411227 214.1549418967887 215.56072944505874 213.70710983381232C215.58871894899477 213.25927777083595 215.30882390963453 212.7554666999875 214.69305482304202 212.08371860552293ZM203.9730748155448 194.7862051730601C204.5048753903293 193.58265650381108 205.8483715792584 193.58265650381108 206.3801721540429 194.75821566912407C206.7440357052112 195.54192177933277 206.54810917765903 196.43758590528552 206.12826661861868 196.96938648006997C206.0442981068106 196.91340747219792 205.8203820753224 196.80144945645384 205.4565185241541 196.68949144070973C205.51249753202615 196.63351243283768 205.5964660438342 196.54954392102962 205.65244505170625 196.43758590528552C205.90435058713047 195.79382731475698 205.65244505170625 194.98213170061229 205.17662348479385 194.95414219667626C204.7847704296895 194.92615269274023 204.4209068785212 195.54192177933277 204.5328648942653 196.21366987379733C204.3089488627771 196.10171185805322 204.00106431948083 196.01774334624517 203.80513779192867 195.96176433837311C203.74915878405662 195.5979007872048 203.80513779192867 195.17805822816445 203.9730748155448 194.7862051730601ZM201.7339145006629 194.14244658253156C202.2937045793834 194.14244658253156 202.8814841620399 194.8981631888042 202.79751565023182 195.96176433837311C202.60158912267966 196.01774334624517 202.40566259512747 196.10171185805322 202.23772557151133 196.21366987379733C202.2937045793834 195.73784830688493 202.04179904395917 195.1220792202924 201.70592499672688 195.15006872422842C201.2580929337505 195.17805822816445 201.17412442194242 196.32562788954144 201.6219564849188 196.68949144070973C201.67793549279085 196.74547044858178 201.70592499672688 196.68949144070973 201.2860824376865 196.997375984006C200.4463973196058 196.1856803698613 200.69830285503002 194.14244658253156 201.7339145006629 194.14244658253156ZM201.0061873983263 197.4731975509184C201.34206144555856 197.22129201549419 201.7339145006629 196.91340747219792 201.76190400459893 196.8854179682619C202.01380954002315 196.63351243283768 202.51762061087157 196.10171185805322 203.30132672108024 196.10171185805322C203.6931797761846 196.10171185805322 204.14101183916097 196.24165937773336 204.70080191788145 196.60552292890168C205.03667596511374 196.82943896038987 205.34456050840998 196.82943896038987 205.96032959500252 197.1093339997501C206.4081616579789 197.30526052730227 206.68805669733914 197.61314507059853 206.520119673723 198.08896663751094C206.3801721540429 198.48081969261528 205.9323400910665 198.90066225165563 205.28858150053796 199.0965887792078C204.67281241394542 199.29251530675998 204.19699084703302 199.96426340122454 203.18936870533614 199.9082843933525C202.96545267384795 199.9082843933525 202.79751565023182 199.85230538548043 202.65756813055168 199.7963263776084C202.2097360675753 199.60039985005622 201.98582003608712 199.23653629888793 201.56597747704674 198.9846307634637C201.09015591013434 198.7327252280395 200.86623987864616 198.42484068474323 200.78227136683807 198.144945645383C200.69830285503002 197.86505060602275 200.78227136683807 197.64113457453456 201.0061873983263 197.4731975509184ZM201.17412442194242 215.72235411720604C201.0341769022623 217.6536298887917 198.76702708344436 217.59765088091964 197.0596673433469 216.7019867549669C195.4362761150575 215.83431213295015 193.30907381591967 216.33812320379857 192.88923125687933 215.49843808571785C192.7492837371992 215.24653255029364 192.7492837371992 214.8266899912533 193.02917877655943 214.07097338498065V214.04298388104462C193.16912629623957 213.62314132200424 193.05716828049546 213.17530925902787 193.0011892726234 212.7554666999875C192.94521026475138 212.33562414094715 192.88923125687933 211.9437710858428 193.02917877655943 211.66387604648259C193.2251053041116 211.30001249531426 193.50500034347183 211.16006497563413 193.84087439070413 211.04810695989005C194.4006644694246 210.8521804323379 194.51262248516872 210.8521804323379 194.93246504420907 210.48831688116957C195.24034958750534 210.1804323378733 195.46426561899352 209.78857928276898 195.71617115441774 209.50868424340874C195.99606619377798 209.20079970011247 196.2479717292022 209.08884168436836 196.66781428824257 209.14482069224042C197.11564635121894 209.20079970011247 197.5074994063233 209.50868424340874 197.87136295749158 210.01249531425717L198.9349641070605 211.9437710858428C199.46676468184495 213.03536173934774 201.2860824376865 214.6027739597651 201.17412442194242 215.72235411720604ZM201.11814541407037 214.29488941646883C200.89422938258218 213.9310258653005 200.5583553353499 213.5671623141322 200.30644979992567 213.23128826689992C200.69830285503002 213.23128826689992 201.09015591013434 213.11933025115582 201.23010342981448 212.7554666999875C201.34206144555856 212.41959265275523 201.23010342981448 211.9437710858428 200.83825037471013 211.38398100712234C200.1105232723735 210.37635886542546 198.73903757950833 209.62064225915282 198.73903757950833 209.62064225915282C198.01131047717172 209.17281019617644 197.59146791813134 208.58503061351993 197.39554139057918 207.9692615269274C197.19961486302702 207.3534924403349 197.22760436696305 206.6817443458703 197.36755188664316 206.03798575534174C197.6474469260034 204.77845807822067 198.37517402834 203.57490940897165 198.85099559525244 202.81919280269898C198.96295361099652 202.73522429089093 198.90697460312447 202.98712982631514 198.37517402834 203.93877296013994C197.8993524614276 204.8064475821567 197.03167783941086 206.84968136948643 198.2352265086599 208.4450830938398C198.26321601259593 207.32550293639886 198.54311105195617 206.14994377108584 198.99094311493255 205.08634262151693C199.6347017054611 203.57490940897165 201.0341769022623 200.99987504685743 201.1461349180064 198.92865175559166C201.20211392587845 198.9846307634637 201.3980404534306 199.0965887792078 201.4820089652387 199.15256778707985C201.7339145006629 199.29251530675998 201.92984102821507 199.51643133824817 202.18174656363928 199.71235786580033C202.85349465810387 200.2721479445208 203.7211692801206 200.24415844058478 204.47688588639326 199.7963263776084C204.81275993362553 199.60039985005622 205.1206444769218 199.37648381856803 205.372550012346 199.29251530675998C205.90435058713047 199.12457828314382 206.32419314617084 198.84468324378358 206.57609868159506 198.48081969261528C206.9959412406354 200.13220042484068 208.0035633823323 202.53929776333874 208.6193324689248 203.71485692865176C208.9552065161571 204.3306260152443 209.62695461062168 205.64613270023742 209.9068496499819 207.24153442459078C210.07478667359806 207.24153442459078 210.27071320115022 207.2695239285268 210.4946292326384 207.32550293639886C211.25034583891104 205.36623766087718 209.8788601460459 203.26702486567538 209.23510155551733 202.67924528301887C208.98319602009312 202.42733974759466 208.98319602009312 202.31538173185055 209.0951540358372 202.31538173185055C209.7948916342378 202.9311508184431 210.66256625625456 204.16268899162813 210.99844030348683 205.5341746844933C211.13838782316697 206.17793327502187 211.19436683103902 206.84968136948643 211.02642980742286 207.493439960015C211.92209393337563 207.85730351118332 212.98569508294455 208.47307259777583 212.7058000435843 209.39672622766463H212.48188401209612C212.64982103571225 208.83693614894415 212.25796798060793 208.4450830938398 211.22235633497502 207.9692615269274C210.1587551854061 207.493439960015 209.23510155551733 207.493439960015 209.12314353977322 208.641009621392C208.45139544530866 208.86492565288017 208.1435109020124 209.45270523553668 207.97557387839626 210.15244283393727C207.83562635871613 210.7682119205298 207.77964735084407 211.49593902286642 207.72366834297205 212.33562414094715C207.69567883903602 212.7554666999875 207.52774181541986 213.31525677870798 207.35980479180373 213.90303636136449C205.5964660438342 215.16256403848558 203.1613792014001 215.69436461327004 201.11814541407037 214.29488941646883ZM215.16887638995442 213.6791203298763C215.11289738208237 214.6027739597651 212.9297160750725 214.77071098338124 211.72616740582347 216.2261651880545C210.99844030348683 217.09383981007122 210.1307656814701 217.56966137698365 209.3470595712614 217.62564038485567C208.56335346105274 217.68161939272773 207.89160536658818 217.34574534549543 207.49975231148383 216.56203923528676C207.24784677605962 215.94627014869425 207.35980479180373 215.3025115581657 207.55573131935589 214.57478445582908C207.75165784690807 213.7910783456204 208.0595423902043 213.00737223541174 208.08753189414034 212.36361364488317C208.1435109020124 211.52392852680245 208.19948990988445 210.79620142446583 208.33943742956455 210.23641134574535C208.4793849492447 209.67662126702487 208.67531147679685 209.31275771585655 209.0671645319012 209.08884168436836C209.0951540358372 209.08884168436836 209.0951540358372 209.06085218043233 209.12314353977322 209.06085218043233C209.17912254764528 209.78857928276898 209.5429860988136 210.48831688116957 210.1587551854061 210.6562539047857C210.85849278380672 210.82419092840186 211.83812542156755 210.26440084968138 212.25796798060793 209.78857928276898C212.76177905145636 209.76058977883295 213.12564260262468 209.73260027489692 213.48950615379297 210.0684743221292C214.02130672857743 210.54429588904162 213.88135920889732 211.7198550543546 214.4411492876178 212.33562414094715C215.02892887027429 212.9793827314757 215.19686589389045 213.39922529051606 215.16887638995442 213.6791203298763ZM201.20211392587845 198.11695614144696C201.31407194162253 198.22891415719107 201.4820089652387 198.36886167687118 201.64994598885482 198.50880919655128C202.01380954002315 198.78870423591152 202.51762061087157 199.0965887792078 203.1333896974641 199.0965887792078C203.77714828799265 199.0965887792078 204.39291737458518 198.78870423591152 204.8967284454336 198.50880919655128C205.17662348479385 198.36886167687118 205.4565185241541 198.144945645383 205.68043455564228 197.9490191178308C205.90435058713047 197.75309259027864 205.98831909893855 197.61314507059853 205.8483715792584 197.5851555666625C205.7084240595783 197.55716606272648 205.73641356351433 197.7251030863426 205.54048703596217 197.86505060602275C205.28858150053796 198.03298762963888 205.00868646117772 198.25690366112707 204.7847704296895 198.3968511808072C204.39291737458518 198.6207672122954 203.6931797761846 198.9566412595277 203.1333896974641 198.9566412595277C202.57359961874363 198.9566412595277 202.12576755576723 198.70473572410347 201.78989350853496 198.42484068474323C201.6219564849188 198.2848931650631 201.4820089652387 198.144945645383 201.37005094949458 198.03298762963888C201.2860824376865 197.9490191178308 201.2580929337505 197.8090715981507 201.11814541407037 197.78108209421467C201.0341769022623 197.78108209421467 201.0061873983263 197.97700862176683 201.20211392587845 198.11695614144696Z" fill="#c2504a"/><path d="M194.740,232.000 L198.047,232.000 L198.047,231.282 L195.575,231.282 L195.575,226.544 L194.740,226.544 L194.740,232.000 Z M198.919,232.000 L199.724,232.000 L199.724,227.905 L198.919,227.905 L198.919,232.000 Z M199.324,227.280 C199.603,227.280 199.834,227.068 199.834,226.804 C199.834,226.536 199.603,226.323 199.324,226.323 C199.047,226.323 198.816,226.536 198.816,226.804 C198.816,227.068 199.047,227.280 199.324,227.280 Z M201.614,229.575 C201.614,228.927 202.017,228.557 202.566,228.557 C203.101,228.557 203.430,228.909 203.430,229.499 L203.430,232.000 L204.236,232.000 L204.236,229.400 C204.236,228.389 203.680,227.854 202.844,227.854 C202.265,227.854 201.837,228.114 201.581,228.693 L201.577,227.905 L200.809,227.905 L200.809,232.000 L201.614,232.000 L201.614,229.575 Z M206.715,232.052 C207.278,232.052 207.718,231.798 207.975,231.205 L207.978,232.000 L208.752,232.000 L208.752,227.905 L207.942,227.905 L207.942,230.330 C207.942,230.978 207.535,231.348 206.990,231.348 C206.455,231.348 206.125,230.997 206.125,230.407 L206.125,227.905 L205.320,227.905 L205.320,230.506 C205.320,231.516 205.880,232.052 206.715,232.052 Z M209.498,232.000 L210.396,232.000 L210.952,231.128 C211.125,230.857 211.249,230.601 211.369,230.359 C211.502,230.601 211.633,230.857 211.805,231.128 L212.355,232.000 L213.260,232.000 L211.864,229.927 L213.196,227.905 L212.303,227.905 L211.831,228.650 C211.652,228.934 211.523,229.198 211.395,229.451 C211.263,229.198 211.128,228.934 210.952,228.650 L210.491,227.905 L209.582,227.905 L210.897,229.898 L209.498,232.000 Z" fill="#a08b85"/>
</svg>
