<svg xmlns="http://www.w3.org/2000/svg" width="240" height="34" viewBox="0 0 240 34" role="img" aria-label="Toolbox">
<path d="M89.474,20.000 L86.880,20.000 L86.880,9.147 L83.548,9.147 L83.548,6.877 L92.804,6.877 L92.804,9.147 L89.474,9.147 L89.474,20.000 Z" fill="#f3ece7"/><path d="M98.808,8.969 Q97.815,8.969 97.356,10.030 Q96.901,11.087 96.901,13.453 Q96.901,15.807 97.356,16.867 Q97.815,17.924 98.808,17.924 Q99.809,17.924 100.265,16.867 Q100.723,15.807 100.723,13.453 Q100.723,11.087 100.265,10.030 Q99.809,8.969 98.808,8.969 Z M94.204,13.453 Q94.204,10.086 95.368,8.365 Q96.532,6.641 98.808,6.641 Q101.094,6.641 102.259,8.365 Q103.423,10.086 103.423,13.453 Q103.423,16.811 102.259,18.535 Q101.094,20.256 98.808,20.256 Q96.532,20.256 95.368,18.535 Q94.204,16.811 94.204,13.453 Z" fill="#f3ece7"/><path d="M109.427,8.969 Q108.434,8.969 107.976,10.030 Q107.520,11.087 107.520,13.453 Q107.520,15.807 107.976,16.867 Q108.434,17.924 109.427,17.924 Q110.428,17.924 110.884,16.867 Q111.342,15.807 111.342,13.453 Q111.342,11.087 110.884,10.030 Q110.428,8.969 109.427,8.969 Z M104.823,13.453 Q104.823,10.086 105.987,8.365 Q107.152,6.641 109.427,6.641 Q111.714,6.641 112.878,8.365 Q114.042,10.086 114.042,13.453 Q114.042,16.811 112.878,18.535 Q111.714,20.256 109.427,20.256 Q107.152,20.256 105.987,18.535 Q104.823,16.811 104.823,13.453 Z" fill="#f3ece7"/><path d="M115.442,20.000 L115.442,6.877 L118.035,6.877 L118.035,17.713 L123.582,17.713 L123.582,20.000 L115.442,20.000 Z" fill="#f3ece7"/><path d="M127.485,14.040 L127.485,17.924 L129.209,17.924 Q130.446,17.924 130.944,17.503 Q131.442,17.081 131.442,16.037 Q131.442,14.971 130.922,14.507 Q130.404,14.040 129.209,14.040 L127.485,14.040 Z M127.485,8.924 L127.485,11.976 L129.209,11.976 Q130.193,11.976 130.610,11.624 Q131.029,11.273 131.029,10.463 Q131.029,9.656 130.601,9.290 Q130.176,8.924 129.209,8.924 L127.485,8.924 Z M124.982,6.860 L129.209,6.860 Q131.397,6.860 132.500,7.693 Q133.602,8.522 133.602,10.173 Q133.602,11.439 132.952,12.150 Q132.303,12.862 131.045,12.977 Q132.547,13.126 133.307,13.990 Q134.069,14.850 134.069,16.397 Q134.069,18.296 132.924,19.148 Q131.782,20.000 129.209,20.000 L124.982,20.000 L124.982,6.860 Z" fill="#f3ece7"/><path d="M140.073,8.969 Q139.080,8.969 138.622,10.030 Q138.166,11.087 138.166,13.453 Q138.166,15.807 138.622,16.867 Q139.080,17.924 140.073,17.924 Q141.074,17.924 141.530,16.867 Q141.988,15.807 141.988,13.453 Q141.988,11.087 141.530,10.030 Q141.074,8.969 140.073,8.969 Z M135.469,13.453 Q135.469,10.086 136.633,8.365 Q137.798,6.641 140.073,6.641 Q142.360,6.641 143.524,8.365 Q144.688,10.086 144.688,13.453 Q144.688,16.811 143.524,18.535 Q142.360,20.256 140.073,20.256 Q137.798,20.256 136.633,18.535 Q135.469,16.811 135.469,13.453 Z" fill="#f3ece7"/><path d="M156.452,20.000 L153.772,20.000 L151.266,15.657 L148.771,20.000 L146.088,20.000 L149.939,13.337 L146.195,6.877 L148.875,6.877 L151.266,11.053 L153.665,6.877 L156.345,6.877 L152.619,13.337 L156.452,20.000 Z" fill="#f3ece7"/><rect x="76" y="29" width="88" height="2" rx="1" fill="#c2504a" opacity="0.75"/>
</svg>
