<svg xmlns="http://www.w3.org/2000/svg" width="142" height="40" viewBox="0 0 142 40" role="img" aria-label="WEBSITE">
<rect x="0.6" y="0.6" width="140.8" height="38.8" rx="8" fill="#1f1414" stroke="#3a2626" stroke-width="1.2"/><rect x="1.5" y="1.5" width="4" height="37" rx="2" fill="#c2504a" opacity="0.72"/><path d="M26.673037190082646 17.102272727272727C26.239152892561982 14.405991735537189 25.200929752066116 12.499999999999998 23.992252066115704 12.499999999999998C22.78357438016529 12.499999999999998 21.760847107438018 14.405991735537189 21.326962809917358 17.102272727272727ZM21.09452479338843 20.0C21.09452479338843 20.666322314049587 21.125516528925623 21.31714876033058 21.1875 21.936983471074377H26.797004132231407C26.858987603305785 21.31714876033058 26.90547520661157 20.666322314049587 26.90547520661157 20.0C26.90547520661157 19.333677685950413 26.858987603305785 18.682851239669418 26.797004132231407 18.06301652892562H21.1875C21.125516528925623 18.682851239669418 21.09452479338843 19.333677685950413 21.09452479338843 20.0ZM30.918904958677686 17.102272727272727C30.051136363636367 15.041322314049586 28.300103305785125 13.445247933884296 26.13068181818182 12.8099173553719C26.87448347107438 13.832644628099173 27.385847107438018 15.382231404958675 27.649276859504134 17.102272727272727ZM21.853822314049587 12.8099173553719C19.69989669421488 13.445247933884296 17.948863636363637 15.041322314049586 17.081095041322314 17.102272727272727H20.35072314049587C20.614152892561986 15.382231404958675 21.110020661157026 13.832644628099173 21.853822314049587 12.8099173553719ZM31.244318181818183 18.06301652892562H27.773243801652896C27.835227272727273 18.698347107438014 27.866219008264466 19.349173553719005 27.866219008264466 20.0C27.866219008264466 20.65082644628099 27.835227272727273 21.301652892561982 27.773243801652896 21.936983471074377H31.244318181818183C31.414772727272727 21.31714876033058 31.5077479338843 20.666322314049587 31.5077479338843 20.0C31.5077479338843 19.333677685950413 31.414772727272727 18.682851239669418 31.244318181818183 18.06301652892562ZM20.118285123966942 20.0C20.118285123966942 19.349173553719005 20.164772727272727 18.698347107438014 20.226756198347108 18.06301652892562H16.75568181818182C16.585227272727273 18.682851239669418 16.492252066115704 19.333677685950413 16.492252066115704 20.0C16.492252066115704 20.666322314049587 16.585227272727273 21.31714876033058 16.75568181818182 21.936983471074377H20.226756198347108C20.164772727272727 21.301652892561982 20.118285123966942 20.65082644628099 20.118285123966942 20.0ZM21.326962809917358 22.897727272727273C21.760847107438018 25.594008264462808 22.78357438016529 27.5 23.992252066115704 27.5C25.200929752066116 27.5 26.239152892561982 25.594008264462808 26.673037190082646 22.897727272727273ZM26.146177685950413 27.1900826446281C28.300103305785125 26.5547520661157 30.051136363636367 24.958677685950413 30.918904958677686 22.897727272727273H27.649276859504134C27.385847107438018 24.617768595041323 26.889979338842977 26.167355371900825 26.146177685950413 27.1900826446281ZM17.081095041322314 22.897727272727273C17.948863636363637 24.958677685950413 19.684400826446282 26.5547520661157 21.853822314049587 27.1900826446281C21.110020661157026 26.167355371900825 20.614152892561986 24.617768595041323 20.35072314049587 22.897727272727273Z" fill="#c2504a"/><path d="M62.221,16.345 L63.543,16.345 L64.093,21.964 L64.754,18.330 L66.009,18.330 L66.779,21.964 L67.210,16.345 L68.542,16.345 L67.661,24.000 L66.250,24.000 L65.379,19.980 L64.564,24.000 L63.164,24.000 L62.221,16.345 Z M74.171,24.000 L69.404,24.000 L69.404,16.345 L74.171,16.345 L74.171,17.679 L70.916,17.679 L70.916,19.329 L73.865,19.329 L73.865,20.663 L70.916,20.663 L70.916,22.666 L74.171,22.666 L74.171,24.000 Z M76.966,20.524 L76.966,22.789 L77.971,22.789 Q78.693,22.789 78.984,22.543 Q79.274,22.297 79.274,21.688 Q79.274,21.067 78.970,20.796 Q78.669,20.524 77.971,20.524 L76.966,20.524 Z M76.966,17.539 L76.966,19.319 L77.971,19.319 Q78.546,19.319 78.788,19.114 Q79.033,18.909 79.033,18.437 Q79.033,17.966 78.783,17.753 Q78.536,17.539 77.971,17.539 L76.966,17.539 Z M75.505,16.335 L77.971,16.335 Q79.248,16.335 79.891,16.821 Q80.534,17.305 80.534,18.268 Q80.534,19.006 80.155,19.421 Q79.776,19.836 79.043,19.903 Q79.919,19.990 80.362,20.494 Q80.806,20.996 80.806,21.898 Q80.806,23.006 80.139,23.503 Q79.472,24.000 77.971,24.000 L75.505,24.000 L75.505,16.335 Z M83.801,20.642 Q82.657,20.205 82.252,19.726 Q81.847,19.247 81.847,18.437 Q81.847,17.396 82.513,16.803 Q83.181,16.207 84.344,16.207 Q84.872,16.207 85.400,16.328 Q85.929,16.448 86.445,16.684 L86.445,18.161 Q85.958,17.816 85.456,17.638 Q84.954,17.457 84.462,17.457 Q83.914,17.457 83.620,17.679 Q83.328,17.899 83.328,18.309 Q83.328,18.627 83.541,18.835 Q83.755,19.042 84.431,19.293 L85.082,19.539 Q86.006,19.877 86.440,20.437 Q86.877,20.996 86.877,21.846 Q86.877,23.006 86.191,23.578 Q85.507,24.149 84.124,24.149 Q83.555,24.149 82.982,24.013 Q82.411,23.877 81.878,23.610 L81.878,22.046 Q82.483,22.477 83.049,22.688 Q83.615,22.898 84.170,22.898 Q84.728,22.898 85.034,22.645 Q85.343,22.391 85.343,21.934 Q85.343,21.590 85.138,21.332 Q84.933,21.073 84.544,20.924 L83.801,20.642 Z M88.390,17.679 L88.390,16.345 L92.947,16.345 L92.947,17.679 L91.425,17.679 L91.425,22.666 L92.947,22.666 L92.947,24.000 L88.390,24.000 L88.390,22.666 L89.912,22.666 L89.912,17.679 L88.390,17.679 Z M97.746,24.000 L96.234,24.000 L96.234,17.669 L94.290,17.669 L94.290,16.345 L99.689,16.345 L99.689,17.669 L97.746,17.669 L97.746,24.000 Z M105.779,24.000 L101.011,24.000 L101.011,16.345 L105.779,16.345 L105.779,17.679 L102.524,17.679 L102.524,19.329 L105.472,19.329 L105.472,20.663 L102.524,20.663 L102.524,22.666 L105.779,22.666 L105.779,24.000 Z" fill="#f3ece7"/>
</svg>
