<svg xmlns="http://www.w3.org/2000/svg" width="142" height="40" viewBox="0 0 142 40" role="img" aria-label="YOUTUBE">
<rect x="0.6" y="0.6" width="140.8" height="38.8" rx="8" fill="#1f1414" stroke="#3a2626" stroke-width="1.2"/><rect x="1.5" y="1.5" width="4" height="37" rx="2" fill="#c2504a" opacity="0.72"/><path d="M34.912 14.496C34.656 13.514666666666667 33.86666666666667 12.725333333333333 32.885333333333335 12.469333333333333C31.114666666666665 12.0 23.989333333333335 12.0 23.989333333333335 12.0C23.989333333333335 12.0 16.885333333333335 12.0 15.114666666666668 12.469333333333333C14.133333333333335 12.725333333333333 13.344000000000001 13.514666666666667 13.088000000000001 14.496C12.618666666666668 16.288 12.618666666666668 20.021333333333335 12.618666666666668 20.021333333333335C12.618666666666668 20.021333333333335 12.618666666666668 23.733333333333334 13.088000000000001 25.525333333333332C13.344000000000001 26.506666666666668 14.133333333333335 27.27466666666667 15.114666666666668 27.530666666666665C16.885333333333335 28.0 23.989333333333335 28.0 23.989333333333335 28.0C23.989333333333335 28.0 31.114666666666665 28.0 32.885333333333335 27.530666666666665C33.86666666666667 27.27466666666667 34.656 26.506666666666668 34.912 25.525333333333332C35.38133333333334 23.733333333333334 35.38133333333334 20.021333333333335 35.38133333333334 20.021333333333335C35.38133333333334 20.021333333333335 35.38133333333334 16.288 34.912 14.496ZM21.664 23.392V16.629333333333335L27.616 20.021333333333335Z" fill="#c2504a"/><path d="M62.241,16.345 L63.872,16.345 L65.359,19.421 L66.850,16.345 L68.481,16.345 L66.118,20.985 L66.118,24.000 L64.606,24.000 L64.606,20.985 L62.241,16.345 Z M71.680,17.565 Q71.101,17.565 70.834,18.184 Q70.568,18.801 70.568,20.181 Q70.568,21.554 70.834,22.172 Q71.101,22.789 71.680,22.789 Q72.264,22.789 72.530,22.172 Q72.797,21.554 72.797,20.181 Q72.797,18.801 72.530,18.184 Q72.264,17.565 71.680,17.565 Z M68.994,20.181 Q68.994,18.217 69.674,17.213 Q70.353,16.207 71.680,16.207 Q73.014,16.207 73.693,17.213 Q74.372,18.217 74.372,20.181 Q74.372,22.140 73.693,23.145 Q73.014,24.149 71.680,24.149 Q70.353,24.149 69.674,23.145 Q68.994,22.140 68.994,20.181 Z M75.387,21.175 L75.387,16.345 L76.899,16.345 L76.899,21.554 Q76.899,22.128 77.191,22.455 Q77.483,22.779 78.002,22.779 Q78.520,22.779 78.812,22.455 Q79.104,22.128 79.104,21.554 L79.104,16.345 L80.617,16.345 L80.617,21.175 Q80.617,22.733 79.997,23.442 Q79.377,24.149 78.002,24.149 Q76.633,24.149 76.010,23.442 Q75.387,22.733 75.387,21.175 Z M85.083,24.000 L83.570,24.000 L83.570,17.669 L81.626,17.669 L81.626,16.345 L87.025,16.345 L87.025,17.669 L85.083,17.669 L85.083,24.000 Z M88.030,21.175 L88.030,16.345 L89.542,16.345 L89.542,21.554 Q89.542,22.128 89.834,22.455 Q90.126,22.779 90.645,22.779 Q91.163,22.779 91.455,22.455 Q91.747,22.128 91.747,21.554 L91.747,16.345 L93.260,16.345 L93.260,21.175 Q93.260,22.733 92.640,23.442 Q92.020,24.149 90.645,24.149 Q89.276,24.149 88.653,23.442 Q88.030,22.733 88.030,21.175 Z M95.910,20.524 L95.910,22.789 L96.915,22.789 Q97.637,22.789 97.928,22.543 Q98.218,22.297 98.218,21.688 Q98.218,21.067 97.915,20.796 Q97.613,20.524 96.915,20.524 L95.910,20.524 Z M95.910,17.539 L95.910,19.319 L96.915,19.319 Q97.490,19.319 97.732,19.114 Q97.977,18.909 97.977,18.437 Q97.977,17.966 97.728,17.753 Q97.480,17.539 96.915,17.539 L95.910,17.539 Z M94.450,16.335 L96.915,16.335 Q98.192,16.335 98.835,16.821 Q99.478,17.305 99.478,18.268 Q99.478,19.006 99.099,19.421 Q98.720,19.836 97.987,19.903 Q98.863,19.990 99.306,20.494 Q99.750,20.996 99.750,21.898 Q99.750,23.006 99.083,23.503 Q98.417,24.000 96.915,24.000 L94.450,24.000 L94.450,16.335 Z M105.759,24.000 L100.991,24.000 L100.991,16.345 L105.759,16.345 L105.759,17.679 L102.504,17.679 L102.504,19.329 L105.452,19.329 L105.452,20.663 L102.504,20.663 L102.504,22.666 L105.759,22.666 L105.759,24.000 Z" fill="#f3ece7"/>
</svg>
